<svg width="124" height="32" viewBox="0 0 124 32" fill="none" xmlns="http://www.w3.org/2000/svg">
<path d="M26.8916 16C27.5802 15.5287 28.138 14.8904 28.5127 14.1449C28.8875 13.3993 29.067 12.5709 29.0344 11.7371C29.0019 10.9033 28.7583 10.0914 28.3265 9.37738C27.8947 8.66335 27.2889 8.07053 26.5656 7.6544L14.4776 0.678034C13.7541 0.259976 12.9363 0.0325593 12.1009 0.0171179C11.2655 0.00167648 10.4399 0.198717 9.70145 0.589754C8.96304 0.980791 8.33607 1.55301 7.87937 2.25271C7.42268 2.95241 7.15121 3.75667 7.09046 4.59001C6.33805 4.22488 5.50518 4.05692 4.67006 4.10192C3.83493 4.14692 3.02494 4.4034 2.31611 4.84727C1.60729 5.29114 1.02288 5.90785 0.617746 6.63951C0.212613 7.37117 4.68425e-05 8.19377 0 9.03011V22.9991C0.000596309 23.8347 0.213984 24.6562 0.620043 25.3864C1.0261 26.1166 1.61145 26.7314 2.32089 27.1727C3.03033 27.614 3.84049 27.8674 4.67496 27.9089C5.50944 27.9504 6.34073 27.7787 7.09046 27.4099C7.14863 28.2444 7.41852 29.0504 7.87465 29.7516C8.33078 30.4529 8.9581 31.0263 9.69738 31.4178C10.4367 31.8093 11.2635 32.006 12.0999 31.9892C12.9363 31.9724 13.7546 31.7427 14.4776 31.3219L26.5852 24.3455C27.3084 23.9294 27.9143 23.3366 28.3461 22.6225C28.7778 21.9085 29.0214 21.0966 29.054 20.2628C29.0866 19.429 28.9071 18.6006 28.5323 17.8551C28.1575 17.1095 27.5998 16.4712 26.9112 16H26.8916ZM10.8623 2.96002C11.2092 2.75974 11.6027 2.65429 12.0033 2.65429C12.4038 2.65429 12.7973 2.75974 13.1443 2.96002L25.2421 9.94617C25.594 10.145 25.8869 10.4337 26.0906 10.7828C26.2944 11.1319 26.4018 11.5289 26.4018 11.9331C26.4018 12.3374 26.2944 12.7343 26.0906 13.0835C25.8869 13.4326 25.594 13.7213 25.2421 13.9201L24.2641 14.4841L14.4776 8.82799C14.3798 8.77257 14.2852 8.72367 14.1874 8.67477L9.71475 6.09287V4.95513C9.71208 4.55073 9.81693 4.15288 10.0186 3.80231C10.2202 3.45175 10.5114 3.16106 10.8623 2.96002ZM10.8623 20.8899C10.5128 20.6897 10.2226 20.4006 10.021 20.0519C9.81948 19.7032 9.71381 19.3074 9.71475 18.9046V13.0888C9.72153 12.4857 9.96413 11.9092 10.3906 11.4827C10.8171 11.0562 11.3936 10.8136 11.9967 10.8068C12.344 10.8101 12.686 10.8914 12.9976 11.0448L18.1679 14.0309C18.5199 14.2297 18.8127 14.5184 19.0165 14.8676C19.2202 15.2167 19.3276 15.6137 19.3276 16.0179C19.3276 16.4221 19.2202 16.8191 19.0165 17.1682C18.8127 17.5173 18.5199 17.806 18.1679 18.0048L13.0236 20.9747C12.6849 21.1422 12.3097 21.2222 11.9322 21.2073C11.5546 21.1925 11.1868 21.0834 10.8623 20.8899ZM3.7881 24.9682C3.43816 24.7677 3.14762 24.478 2.94604 24.1287C2.74447 23.7794 2.63907 23.3829 2.64059 22.9796V9.01707C2.63907 8.61377 2.74447 8.21727 2.94604 7.86796C3.14762 7.51864 3.43816 7.22898 3.7881 7.02848C4.13501 6.82819 4.52852 6.72275 4.92909 6.72275C5.32967 6.72275 5.72318 6.82819 6.07009 7.02848L7.06764 7.60224V18.9111V24.3977L6.07009 24.9747C5.72318 25.175 5.32967 25.2804 4.92909 25.2804C4.52852 25.2804 4.13501 25.175 3.7881 24.9747V24.9682ZM25.2551 22.0537L13.1573 29.0399C12.809 29.2456 12.4123 29.3551 12.0078 29.3571C11.6032 29.3591 11.2055 29.2535 10.8552 29.0511C10.5049 28.8488 10.2147 28.557 10.0143 28.2056C9.81391 27.8542 9.71053 27.4558 9.71475 27.0513V25.9168L14.2429 23.3088L14.4776 23.185L24.2804 17.5224L25.2584 18.0863C25.6103 18.2851 25.9032 18.5739 26.1069 18.923C26.3107 19.2721 26.4181 19.6691 26.4181 20.0733C26.4181 20.4775 26.3107 20.8745 26.1069 21.2236C25.9032 21.5727 25.6103 21.8615 25.2584 22.0603L25.2551 22.0537Z" fill="#FF6060"/>
<path d="M39.6586 22.66H34.9903C34.8143 22.66 34.7295 22.5655 34.7295 22.3764V9.4799C34.7295 9.29082 34.8143 9.19954 34.9903 9.19954H39.6586C41.2538 9.19954 42.4991 9.62225 43.3945 10.4677C44.2899 11.3131 44.7377 12.5465 44.7377 14.1678V17.7537C44.7377 19.3468 44.2899 20.5638 43.3945 21.4049C42.4991 22.246 41.2538 22.6644 39.6586 22.66ZM37.018 11.2925V20.5345H39.6716C41.4907 20.5345 42.4002 19.6119 42.4002 17.7668V14.1547C42.4002 12.2465 41.4907 11.2925 39.6716 11.2925H37.018Z" fill="white"/>
<path d="M49.0207 9.48023C49.1349 9.59528 49.2244 9.73236 49.2838 9.88313C49.3432 10.0339 49.3713 10.1952 49.3663 10.3572C49.3708 10.5201 49.3426 10.6822 49.2832 10.834C49.2239 10.9858 49.1346 11.124 49.0207 11.2406C48.9073 11.3577 48.7708 11.4501 48.6198 11.5118C48.4689 11.5735 48.3068 11.6033 48.1438 11.5992C47.9801 11.6014 47.8176 11.5708 47.6659 11.5091C47.5142 11.4475 47.3764 11.3561 47.2606 11.2403C47.1449 11.1245 47.0535 10.9867 46.9918 10.8351C46.9302 10.6834 46.8995 10.5209 46.9017 10.3572C46.8977 10.1942 46.9274 10.0321 46.9892 9.88113C47.0509 9.7302 47.1432 9.5937 47.2603 9.48023C47.3769 9.36637 47.5152 9.27711 47.667 9.21775C47.8187 9.15838 47.9809 9.13014 48.1438 9.13468C48.3058 9.1297 48.4671 9.15778 48.6178 9.21719C48.7686 9.2766 48.9057 9.3661 49.0207 9.48023ZM48.9523 22.6636H47.3223C47.284 22.6685 47.2451 22.6645 47.2087 22.6519C47.1722 22.6393 47.1391 22.6185 47.112 22.5911C47.0849 22.5636 47.0645 22.5303 47.0523 22.4937C47.0401 22.4571 47.0366 22.4182 47.0419 22.38V13.1771C47.0419 13.001 47.1365 12.913 47.3223 12.913H48.9523C48.9881 12.9082 49.0245 12.9116 49.0588 12.9232C49.093 12.9348 49.1241 12.9541 49.1497 12.9796C49.1753 13.0052 49.1946 13.0363 49.2061 13.0705C49.2177 13.1048 49.2212 13.1412 49.2163 13.1771V22.3767C49.2163 22.5658 49.1283 22.6603 48.9523 22.6603V22.6636Z" fill="white"/>
<path d="M59.5662 22.0408C59.5662 24.9618 58.1742 26.4223 55.3902 26.4223C54.07 26.4619 52.7756 26.0515 51.7194 25.2584C51.5923 25.1704 51.576 25.0433 51.664 24.8803L52.4529 23.7132C52.4675 23.6779 52.4905 23.6468 52.52 23.6226C52.5495 23.5983 52.5845 23.5818 52.6219 23.5744C52.6593 23.5669 52.698 23.5689 52.7345 23.58C52.771 23.5912 52.8042 23.6112 52.8311 23.6382C53.5638 24.1877 54.4548 24.4851 55.3706 24.4858C56.0965 24.4858 56.6235 24.2978 56.9517 23.9218C57.2799 23.5459 57.4298 22.8939 57.4016 21.9659C56.7429 22.2488 56.032 22.3899 55.3152 22.3799C54.2525 22.4211 53.2125 22.0655 52.3975 21.3823C51.6325 20.7303 51.25 19.7643 51.25 18.4842V16.7173C51.25 15.3242 51.6477 14.3049 52.4432 13.6594C53.2386 13.0139 54.2894 12.6879 55.5956 12.6814C56.8873 12.6691 58.1682 12.9186 59.3608 13.4149C59.4276 13.437 59.4845 13.4816 59.522 13.5411C59.5594 13.6006 59.5751 13.6712 59.5662 13.7409V22.0408ZM53.4505 18.4809C53.4505 19.8023 54.1405 20.4619 55.5206 20.4597C56.3899 20.4597 57.0104 20.3022 57.382 19.9871V14.8493C56.8135 14.6922 56.2242 14.6229 55.6347 14.6439C55.0545 14.6037 54.4784 14.7662 54.0047 15.1036C53.6298 15.4133 53.4407 15.9479 53.4407 16.714L53.4505 18.4809Z" fill="white"/>
<path d="M63.9055 9.48023C64.0196 9.59528 64.1091 9.73236 64.1685 9.88313C64.2279 10.0339 64.256 10.1952 64.251 10.3572C64.2556 10.5201 64.2273 10.6822 64.168 10.834C64.1086 10.9858 64.0194 11.124 63.9055 11.2406C63.792 11.3577 63.6555 11.4501 63.5046 11.5118C63.3537 11.5735 63.1916 11.6033 63.0286 11.5992C62.8648 11.6014 62.7023 11.5708 62.5507 11.5091C62.399 11.4475 62.2612 11.3561 62.1454 11.2403C62.0296 11.1245 61.9382 10.9867 61.8766 10.8351C61.8149 10.6834 61.7843 10.5209 61.7865 10.3572C61.7824 10.1942 61.8122 10.0321 61.8739 9.88113C61.9357 9.7302 62.028 9.5937 62.1451 9.48023C62.2617 9.36637 62.4 9.27711 62.5517 9.21775C62.7035 9.15838 62.8657 9.13014 63.0286 9.13468C63.1905 9.1297 63.3518 9.15778 63.5026 9.21719C63.6534 9.2766 63.7904 9.3661 63.9055 9.48023ZM63.837 22.6636H62.207C62.1686 22.6692 62.1295 22.6657 62.0927 22.6533C62.0559 22.641 62.0225 22.6202 61.9952 22.5926C61.968 22.565 61.9475 22.5314 61.9356 22.4945C61.9237 22.4575 61.9207 22.4183 61.9267 22.38V13.1771C61.9267 13.001 62.018 12.913 62.207 12.913H63.837C63.8728 12.9082 63.9093 12.9116 63.9435 12.9232C63.9778 12.9348 64.0089 12.9541 64.0345 12.9796C64.06 13.0052 64.0793 13.0363 64.0909 13.0705C64.1024 13.1048 64.1059 13.1412 64.1011 13.1771V22.3767C64.1011 22.5658 64.0131 22.6603 63.837 22.6603V22.6636Z" fill="white"/>
<path d="M68.6015 19.2602C68.5747 19.6962 68.7119 20.1264 68.9861 20.4664C69.1275 20.6139 69.2993 20.7289 69.4896 20.8032C69.6799 20.8775 69.8841 20.9094 70.088 20.8967C70.1988 20.8967 70.4564 20.8967 70.8574 20.8609C71.0595 20.8609 71.1605 20.9489 71.1605 21.1249V22.5528C71.1662 22.5906 71.1636 22.6292 71.1529 22.6659C71.1422 22.7026 71.1236 22.7365 71.0985 22.7654C71.0734 22.7942 71.0423 22.8172 71.0075 22.8329C70.9726 22.8485 70.9347 22.8564 70.8965 22.856C70.4694 22.8788 70.1369 22.8918 69.8989 22.8918C68.9813 22.9352 68.0811 22.6301 67.379 22.0377C66.727 21.4683 66.4064 20.5925 66.4173 19.4102V10.8038C66.4173 10.6278 66.5118 10.5398 66.7009 10.5398H68.1288C68.1638 10.5366 68.1991 10.5407 68.2326 10.5515C68.266 10.5624 68.2969 10.58 68.3234 10.6031C68.3499 10.6263 68.3715 10.6545 68.3868 10.6862C68.402 10.7179 68.4107 10.7524 68.4124 10.7875L68.5819 13.0434H70.5966C70.7824 13.0434 70.8769 13.1315 70.8769 13.3075V14.6962C70.8769 14.8723 70.7824 14.9603 70.5966 14.9603H68.6015V19.2602Z" fill="white"/>
<path d="M72.6655 13.6822C73.766 12.9878 75.0525 12.6465 76.3525 12.7042C77.5685 12.7042 78.5269 13.0302 79.2213 13.6528C79.9156 14.2755 80.2677 15.2437 80.2677 16.5216V22.0179C80.2723 22.0874 80.2546 22.1566 80.217 22.2153C80.1795 22.2739 80.1241 22.319 80.0591 22.3439C78.8344 22.7223 77.5593 22.9124 76.2775 22.9079C75.2222 22.949 74.1771 22.6878 73.2653 22.1549C72.4764 21.6528 72.0819 20.8563 72.0819 19.7653C72.0579 19.3257 72.1483 18.8874 72.3443 18.4931C72.5403 18.0989 72.8351 17.7622 73.2001 17.5159C73.9455 17.0095 74.9464 16.7563 76.2025 16.7563C76.8321 16.7656 77.4604 16.8157 78.0835 16.9063V16.5477C78.0835 15.8696 77.9434 15.3839 77.6597 15.0905C77.3761 14.7971 76.8904 14.6471 76.2025 14.6471C75.3596 14.6258 74.5268 14.8343 73.7934 15.2502C73.7668 15.2773 73.7339 15.2974 73.6976 15.3086C73.6614 15.3198 73.6229 15.3217 73.5856 15.3143C73.5484 15.3068 73.5136 15.2902 73.4844 15.266C73.4553 15.2417 73.4326 15.2105 73.4185 15.1752L72.6655 14.0277C72.5774 13.8647 72.5774 13.7604 72.6655 13.6822ZM74.2954 19.7229C74.287 19.9168 74.3336 20.1092 74.43 20.2776C74.5263 20.4461 74.6684 20.5838 74.8399 20.6748C75.2871 20.9071 75.7869 21.0194 76.2906 21.0008C76.8993 20.997 77.5055 20.9215 78.0966 20.7759V18.6504C77.4926 18.5548 76.8824 18.5035 76.271 18.4972C74.9453 18.4863 74.2824 18.8949 74.2824 19.7229H74.2954Z" fill="white"/>
<path d="M86.6865 22.8459C86.3303 22.8839 85.9722 22.9024 85.614 22.9013C85.1794 22.9268 84.7446 22.8539 84.3421 22.6879C83.9397 22.522 83.5799 22.2673 83.2896 21.9429C82.7452 21.2909 82.4713 20.4042 82.4713 19.2501V9.47997C82.4657 9.44157 82.4693 9.4024 82.4816 9.36562C82.4939 9.32883 82.5147 9.29545 82.5423 9.26817C82.5699 9.24089 82.6035 9.22048 82.6405 9.20857C82.6774 9.19666 82.7166 9.19359 82.7549 9.19961H84.3849C84.4233 9.19359 84.4625 9.19666 84.4994 9.20857C84.5363 9.22048 84.5699 9.24089 84.5975 9.26817C84.6251 9.29545 84.6459 9.32883 84.6583 9.36562C84.6706 9.4024 84.6741 9.44157 84.6686 9.47997V19.1523C84.629 19.615 84.7338 20.0785 84.9685 20.4792C85.0804 20.6185 85.2249 20.7282 85.3892 20.7987C85.5534 20.8692 85.7325 20.8983 85.9106 20.8834C86.0606 20.8834 86.2986 20.8834 86.6246 20.8475C86.6628 20.8422 86.7017 20.8458 86.7383 20.8579C86.7749 20.8701 86.8082 20.8905 86.8356 20.9176C86.8631 20.9447 86.8839 20.9778 86.8965 21.0143C86.909 21.0508 86.913 21.0896 86.9082 21.1279V22.5199C86.8984 22.7155 86.8234 22.8166 86.6865 22.8459Z" fill="white"/>
<path d="M99.818 14.8132V9.4799C99.818 9.29082 99.9061 9.19954 100.082 9.19954H101.813C101.989 9.19954 102.077 9.29082 102.077 9.4799V22.3699C102.077 22.559 101.989 22.6535 101.813 22.6535H100.082C99.9061 22.6535 99.818 22.559 99.818 22.3699V16.9029H94.5108V22.3764C94.5108 22.5655 94.4228 22.66 94.25 22.66H92.5157C92.3429 22.66 92.2549 22.5655 92.2549 22.3764V9.4799C92.2549 9.29082 92.3429 9.19954 92.5157 9.19954H94.25C94.4228 9.19954 94.5108 9.29082 94.5108 9.4799V14.8067L99.818 14.8132Z" fill="white"/>
<path d="M110.995 12.9128H112.625C112.814 12.9128 112.909 13.0009 112.909 13.1769V21.793C112.913 21.8625 112.895 21.9317 112.858 21.9904C112.82 22.049 112.765 22.0941 112.7 22.119C111.537 22.6255 110.281 22.8821 109.013 22.8721C107.67 22.8721 106.616 22.5276 105.851 21.8387C105.086 21.1497 104.703 20.0826 104.703 18.6374V13.1769C104.703 13.0009 104.798 12.9128 104.987 12.9128H106.617C106.653 12.908 106.689 12.9115 106.723 12.9231C106.757 12.9346 106.789 12.9539 106.814 12.9795C106.84 13.005 106.859 13.0361 106.871 13.0704C106.882 13.1046 106.886 13.1411 106.881 13.1769V18.608C106.881 19.4491 107.057 20.0457 107.415 20.3945C107.633 20.5833 107.885 20.7271 108.158 20.8178C108.431 20.9084 108.719 20.9441 109.006 20.9226C109.585 20.9416 110.163 20.8656 110.718 20.6977V13.1769C110.712 13.1398 110.716 13.102 110.728 13.0666C110.74 13.0311 110.761 12.9992 110.788 12.9733C110.815 12.9475 110.848 12.9285 110.884 12.918C110.92 12.9074 110.958 12.9057 110.995 12.9128Z" fill="white"/>
<path d="M117.434 13.1019C118.077 12.8272 118.769 12.6863 119.468 12.6879C120.561 12.6463 121.626 13.0376 122.432 13.7768C122.818 14.1508 123.121 14.6024 123.321 15.1019C123.52 15.6014 123.611 16.1375 123.589 16.6749V18.745C123.589 20.1142 123.193 21.1465 122.402 21.842C121.611 22.5374 120.564 22.8852 119.26 22.8852C117.969 22.8879 116.688 22.6582 115.478 22.2071C115.408 22.1881 115.347 22.145 115.306 22.0853C115.265 22.0256 115.246 21.9533 115.253 21.8811V9.4801C115.247 9.44188 115.25 9.40275 115.262 9.36591C115.274 9.32908 115.294 9.2956 115.322 9.26822C115.349 9.24085 115.382 9.22037 115.419 9.20847C115.456 9.19656 115.495 9.19357 115.533 9.19974H117.163C117.202 9.19429 117.24 9.19779 117.277 9.20995C117.313 9.22211 117.347 9.2426 117.374 9.26981C117.401 9.29701 117.421 9.33018 117.434 9.36668C117.446 9.40318 117.449 9.44201 117.444 9.4801L117.434 13.1019ZM119.204 20.9259C119.793 20.9737 120.377 20.7914 120.834 20.4173C121.199 20.0783 121.382 19.5263 121.382 18.7613V16.6716C121.382 15.3068 120.672 14.6233 119.253 14.6211C118.617 14.6069 117.99 14.7767 117.447 15.1101V20.6521C118.01 20.8537 118.606 20.9477 119.204 20.9292V20.9259Z" fill="white"/>
</svg>
