<svg width="16" height="16" viewBox="0 0 16 16" fill="none" xmlns="http://www.w3.org/2000/svg">
<path fill-rule="evenodd" clip-rule="evenodd" d="M6.9 13.7C8.8 14.9 11.1 15.7 13.4 16H13.6C13.9 16 14.1 16 14.3 15.9C14.7 15.8 15 15.6 15.2 15.4C15.5 15.2 15.7 14.9 15.8 14.6C15.9 14.3 16 13.9 16 13.6V11.5C16 10.9 15.8 10.3 15.4 9.9C15 9.5 14.5 9.2 13.9 9.1C13.3 9.1 12.7 8.9 12.1 8.70001L12.1 8.7C11.7 8.5 11.3 8.5 10.8 8.6C10.3 8.6 9.9 8.9 9.6 9.2L9.3 9.5C8.2 8.8 7.2 7.8 6.5 6.7L6.8 6.4C7.1 6 7.4 5.5 7.5 5.1C7.6 4.7 7.6 4.2 7.4 3.8C7.1 3.3 7 2.7 6.9 2.1C6.8 1.5 6.5 1 6.1 0.6C5.6 0.2 5.1 0 4.5 0H2.4C2.1 0 1.7 0.1 1.4 0.2C1.1 0.4 0.8 0.6 0.6 0.8C0.4 1 0.2 1.3 0.1 1.6C0 1.9 0 2.2 0 2.6C0.3 5 1.1 7.2 2.3 9.2C3.5 11 5 12.5 6.9 13.7ZM2.4 2H4.5C4.6 2 4.7 2 4.8 2.1C4.8 2.1 4.9 2.2 4.9 2.3C5 3.1 5.2 3.8 5.5 4.6V4.8C5.5 4.8425 5.5 4.86693 5.49233 4.88866C5.48194 4.91806 5.4575 4.9425 5.4 5L4.5 5.8C4.2 6.2 4.1 6.7 4.3 7.1C5.4 9 7 10.6 8.8 11.8C9.2 12 9.7 11.9 10 11.6L10.9 10.7C10.95 10.7 10.975 10.675 11 10.65C11.025 10.625 11.05 10.6 11.1 10.6H11.3C12 10.8 12.8 11 13.5 11.1C13.6 11.1 13.7 11.1 13.8 11.2C13.9 11.3 13.9 11.4 13.9 11.5V13.6V13.8L13.8 13.9C13.8 13.95 13.8 13.975 13.7875 13.9875C13.775 14 13.75 14 13.7 14H13.5C11.5 13.8 9.6 13.1 7.9 12C6.4 11 5 9.6 4 8C2.9 6.3 2.2 4.4 2 2.4V2.2L2.1 2.1C2.1 2.1 2.1 2 2.2 2H2.4ZM10 0H15H16V1V6H14V3.41421L10.2071 7.20711L8.79289 5.79289L12.5858 2H10V0Z" fill="white"/>
</svg>
