<svg width="128" height="128" viewBox="0 0 128 128" fill="none" xmlns="http://www.w3.org/2000/svg">
<path fill-rule="evenodd" clip-rule="evenodd" d="M87 64C87 76.7025 76.7025 87 64 87C51.2975 87 41 76.7025 41 64C41 51.2975 51.2975 41 64 41C76.7025 41 87 51.2975 87 64ZM59.8849 75.9058C63.222 75.9058 66.7019 74.1037 67.8727 70.3103V75.6385L73.8785 73.8317V60.11C73.8785 53.6986 68.5964 51.8918 63.54 51.8918C60.604 51.8918 57.7186 52.4772 56.0454 53.1547L54.151 58.5245C57.1747 57.4828 60.3781 56.7177 62.9086 56.7177C65.6187 56.7177 67.6053 57.6211 67.8312 60.1054L52.3027 68.9091C52.3027 73.5137 56.004 75.9058 59.8849 75.9058ZM58.304 67.153L67.8727 65.3923V66.1159C67.8727 69.8171 65.2132 71.67 62.6827 71.67C60.4242 71.67 58.304 70.1767 58.304 67.153Z" fill="white"/>
</svg>
