<svg width="128" height="128" viewBox="0 0 128 128" fill="none" xmlns="http://www.w3.org/2000/svg">
<g clip-path="url(#clip0_447_2139)">
<path d="M94.4848 69.3491C91.6141 69.3491 89.4566 67.2634 89.4566 64.5026C89.4566 61.7417 91.6141 59.6612 94.4848 59.6612C97.3555 59.6612 99.5185 61.74 99.5185 64.5026C99.5185 67.2651 97.3573 69.3491 94.4848 69.3491ZM94.4848 57C89.8341 57 86.3232 60.2281 86.3232 64.5026C86.3232 68.777 89.8377 72.0017 94.4848 72.0017C99.1319 72.0017 102.643 68.7787 102.643 64.5026C102.643 60.2264 99.141 57 94.4848 57Z" fill="white"/>
<path d="M77.3451 69.2271C77.2138 69.2271 76.7049 69.2271 75.0416 69.2271V59.7832C76.7049 59.7832 77.2138 59.7832 77.3451 59.7832C80.2012 59.7952 82.3551 61.8191 82.3551 64.5043C82.3551 67.1896 80.1957 69.2134 77.3451 69.2271ZM77.3214 57.323H71.9648V71.6753H77.3214C81.8809 71.6753 85.3188 68.5829 85.3188 64.4992C85.3188 60.4154 81.8809 57.3213 77.3214 57.3213V57.323Z" fill="white"/>
<path d="M66.5644 65.1144H60.9471C60.3908 65.1144 59.8573 65.3226 59.464 65.6931C59.0707 66.0636 58.8497 66.5662 58.8497 67.0902C58.8497 67.6142 59.0707 68.1167 59.464 68.4872C59.8573 68.8577 60.3908 69.0659 60.9471 69.0659C60.9471 69.0659 62.5758 69.0745 63.991 69.0745C65.7073 69.0745 66.5644 68.0866 66.5663 66.7603C66.5663 66.4992 66.5663 65.123 66.5663 65.123L66.5644 65.1144ZM69.6431 67.1417C69.6321 69.7359 67.4143 71.6635 64.5199 71.6687C64.3923 71.6687 61.1824 71.6687 60.8887 71.6687C57.998 71.6687 55.782 69.7359 55.7656 67.1417C55.7656 67.128 55.7802 66.5524 55.793 66.549C56.0593 64.2039 58.1785 62.5099 60.8887 62.5065H66.5736C66.5736 62.4945 66.5736 62.3158 66.5736 62.0632C66.5334 60.7438 65.4993 59.8659 63.94 59.8659H57.3305V57.3232H64.5199C67.4143 57.3336 69.6266 59.2594 69.6431 61.8519V67.1348V67.1417Z" fill="white"/>
<path d="M53.1288 61.608C54.5623 59.7182 54.555 57.3284 54.555 57.3284H51.3943C51.3943 57.3284 51.3706 58.275 50.6338 59.6099C49.9918 60.761 49.286 61.4362 47.7941 62.2024C46.3533 62.9377 44.2486 62.8003 44.2486 62.8003V57.3232H41.1719V71.6807H44.2486V65.7226C45.2604 65.6747 46.2729 65.8016 47.2361 66.0972C48.6477 66.561 49.8605 67.621 50.5973 68.8357C51.3342 70.0503 51.4089 71.6807 51.4089 71.6807H54.5441C54.5441 71.6807 54.6936 68.9456 52.9026 66.6985C52.102 65.6969 50.5864 64.6368 49.6927 64.3516C51.0774 63.7449 52.2662 62.8029 53.1379 61.6217L53.1288 61.608Z" fill="white"/>
<path d="M35.8043 65.1144H30.1796C29.6234 65.1144 29.0899 65.3226 28.6966 65.6931C28.3032 66.0636 28.0822 66.5662 28.0822 67.0902C28.0822 67.6142 28.3032 68.1167 28.6966 68.4872C29.0899 68.8577 29.6234 69.0659 30.1796 69.0659C30.1796 69.0659 31.8119 69.0745 33.2327 69.0745C34.9398 69.0745 35.8006 68.0866 35.8061 66.7603C35.8061 66.4992 35.8061 65.123 35.8061 65.123L35.8043 65.1144ZM38.881 67.1417C38.8683 69.7359 36.6487 71.6635 33.758 71.6687C33.6285 71.6687 30.4204 71.6687 30.1267 71.6687C27.2323 71.6687 25.0201 69.7359 25 67.1417C25 67.128 25.0201 66.5524 25.0292 66.549C25.2973 64.2039 27.4184 62.5099 30.1267 62.5065H35.8061C35.8061 62.4945 35.8152 62.3158 35.8061 62.0632C35.7714 60.7438 34.7337 59.8659 33.1762 59.8659H26.5667V57.3232H33.758C36.6487 57.3336 38.8646 59.2594 38.881 61.8519V67.1348V67.1417Z" fill="white"/>
</g>
<defs>
<clipPath id="clip0_447_2139">
<rect width="77.6471" height="15" fill="white" transform="translate(25 57)"/>
</clipPath>
</defs>
</svg>
