<svg width="128" height="128" viewBox="0 0 128 128" fill="none" xmlns="http://www.w3.org/2000/svg">
<path fill-rule="evenodd" clip-rule="evenodd" d="M64 45.5337V41H79.2339C83.5051 41 87 44.4949 87 48.7667V79.2339C87 83.5051 83.5051 87 79.2339 87H48.7661C44.4942 87 41 83.5051 41 79.2339V77.3719L46.8361 74.1442C46.9119 74.2354 46.9996 74.3174 47.0979 74.3878L54.2227 79.4846C54.8462 79.9311 55.7219 79.7895 56.1703 79.1614C56.6187 78.5345 56.4745 77.6628 55.847 77.2131L50.4651 73.3626L63.9996 65.7513L77.5342 73.3626L72.1522 77.2131C71.5247 77.6628 71.3805 78.5345 71.8289 79.1614C72.278 79.7895 73.153 79.9311 73.7765 79.4846L80.9013 74.3878C81.2325 74.1508 81.4439 73.7814 81.4794 73.3752L82.257 64.599C82.3248 63.83 81.7573 63.1531 80.9889 63.0853C80.2192 63.0195 79.543 63.5851 79.4752 64.3535L78.8938 70.9238L65.406 63.3388V49.1083L71.3805 51.8625C72.0804 52.1865 72.9101 51.8796 73.2333 51.1791C73.556 50.4792 73.2505 49.6489 72.5492 49.3269L64.5942 45.6589C64.3899 45.5757 64.1953 45.5337 64 45.5337Z" fill="white"/>
<path opacity="0.5" fill-rule="evenodd" clip-rule="evenodd" d="M46.8361 74.1442C46.6568 73.9282 46.5448 73.6608 46.5198 73.3752L45.7429 64.599C45.6744 63.83 46.242 63.1531 47.0104 63.0853C47.7801 63.0195 48.4563 63.5851 48.5241 64.3535L49.1055 70.9238L62.5932 63.3388V49.1083L56.6187 51.8625C55.9195 52.1865 55.0892 51.8796 54.7666 51.1791C54.4433 50.4792 54.7495 49.6489 55.45 49.3269L63.4051 45.6589C63.6107 45.5751 63.8056 45.5336 64 45.5337V41H48.7661C44.4942 41 41 44.4949 41 48.7661V77.3719L46.8361 74.1442Z" fill="white"/>
</svg>
