<svg width="128" height="128" viewBox="0 0 128 128" fill="none" xmlns="http://www.w3.org/2000/svg">
<path d="M83.0398 80.238H45.6143V47.394H83.0398V80.238Z" fill="#232A39"/>
<path d="M61.5988 53.1256C63.31 53.1256 64.644 53.834 65.8124 55.3704C67.0544 57.0172 68.1124 59.7404 68.8668 63.2272C67.9192 67.956 66.99 70.808 65.8676 72.4548C64.7268 74.1292 63.2272 75.0124 61.5436 75.0124C59.584 75.0124 58.0936 74.1292 57.008 72.3168C55.8672 70.4124 55.2876 67.5604 55.2876 63.8436C55.2876 60.4304 55.904 57.7256 57.1092 55.7844C58.2408 53.972 59.6668 53.1256 61.5988 53.1256ZM73.3196 41C80.8636 41 87 47.1364 87 54.6804V73.3104C87 80.8544 80.8636 87 73.3196 87H54.6896C47.1364 87 41 80.8544 41 73.3104V54.6804C41 47.1364 47.1364 41 54.6896 41H73.3196ZM81.7652 69.6488H78.5176L78.4992 69.8512C78.4348 70.6516 77.938 71.4612 77.1008 71.4612C76.466 71.4612 75.96 71.222 75.5368 70.7436C75.04 70.164 74.5892 69.474 74.1292 68.2228C75.4172 63.8436 79.4008 49.8228 79.4008 49.8228H71.8476C71.8476 49.8228 71.1484 53.1072 70.5228 56.1064C70.4952 56.0328 70.4584 55.9592 70.4216 55.8948C69.796 54.5516 68.7932 53.052 67.6708 52.0032C65.7388 50.1724 63.448 49.28 60.688 49.28C56.87 49.28 53.65 50.6876 51.1016 53.4752C48.5624 56.2444 47.2284 59.7864 47.2284 63.7332C47.2284 68.1308 48.498 71.7372 51.0096 74.4604C53.6316 77.3032 56.7596 78.628 60.8536 78.628C63.2456 78.628 65.518 77.9196 67.634 76.5212C69.0048 75.6196 70.2468 74.3684 71.4244 72.7492C71.9212 74.35 72.418 75.4448 73.016 76.2636C73.982 77.5884 75.4264 78.3428 76.9812 78.3428C78.6004 78.3428 80.0724 77.5148 80.8268 76.1808C81.4984 75.0032 81.7744 73.5312 81.7744 71.1208V69.6488H81.7652Z" fill="white"/>
</svg>
