<svg width="128" height="128" viewBox="0 0 128 128" fill="none" xmlns="http://www.w3.org/2000/svg">
<path fill-rule="evenodd" clip-rule="evenodd" d="M44.526 49.0002H28.7367C25.174 49.2802 21.8295 50.8274 19.3094 53.3611C16.7893 55.895 15.2605 59.248 15 62.8122V65.2859C15.2819 68.8367 16.8233 72.17 19.3462 74.6846C21.8691 77.1993 25.2074 78.7296 28.7592 79H44.5485C44.6729 79 44.7922 78.9512 44.8808 78.864C44.9166 78.8287 44.9463 78.7884 44.969 78.7445C45.0025 78.6799 45.021 78.6079 45.0222 78.5338V49.459C45.0163 49.3327 44.961 49.2137 44.8681 49.1278C44.7753 49.0421 44.6523 48.9962 44.526 49.0002ZM39.8869 68.7293C39.553 69.2666 39.1678 69.7703 38.7366 70.2331C38.1818 70.812 37.5552 71.3174 36.8719 71.7368C35.4348 72.6293 33.7741 73.0959 32.0825 73.0827C30.8581 73.0783 29.6476 72.8224 28.5261 72.3308C27.4458 71.8649 26.4617 71.2021 25.6239 70.3761C24.7949 69.5436 24.1316 68.5612 23.6691 67.4813C23.2074 66.3915 22.9647 65.2213 22.9548 64.0377C22.9504 62.826 23.1935 61.626 23.6691 60.5114C24.5918 58.3054 26.3363 56.5448 28.5337 55.6017C30.4394 54.8037 32.5584 54.6712 34.5486 55.2258C35.324 55.4462 36.0672 55.7673 36.7591 56.1806C37.4363 56.596 38.0536 57.1019 38.5937 57.6844C39.0199 58.1306 39.4026 58.6165 39.7365 59.1354C39.775 59.1922 39.8015 59.256 39.8144 59.3232C39.8229 59.3671 39.8254 59.4121 39.822 59.4565C39.8202 59.48 39.8168 59.5033 39.8117 59.5264C39.7949 59.5887 39.7655 59.6467 39.7254 59.6971C39.6853 59.7476 39.6354 59.7893 39.5787 59.8198L39.0899 60.0828L38.4057 60.4364L37.6539 60.7972L37.0072 61.1205C36.9054 61.1675 36.7902 61.1776 36.6818 61.1488C36.5733 61.1199 36.4783 61.054 36.4133 60.9626C35.9322 60.2616 35.2865 59.6893 34.5327 59.2961C33.779 58.9029 32.9402 58.7006 32.09 58.707C31.3734 58.7022 30.6639 58.8484 30.0073 59.1354C29.3723 59.4071 28.7935 59.7946 28.3006 60.2783C27.8069 60.7618 27.4156 61.3397 27.1502 61.9775C26.8753 62.6296 26.7347 63.3302 26.7367 64.0377C26.7299 64.7506 26.8707 65.4571 27.1502 66.1128C27.4219 66.743 27.8125 67.3148 28.3006 67.797C29.2983 68.7939 30.6496 69.356 32.0599 69.361C33.0324 69.3768 33.9893 69.1159 34.8193 68.6091C35.5092 68.1922 36.0953 67.6239 36.5336 66.9475C36.597 66.8498 36.6947 66.7795 36.8074 66.7503C36.9201 66.7212 37.0397 66.7351 37.1426 66.7896L37.7666 67.1129L38.5185 67.4888C38.6014 67.5345 38.6854 67.5802 38.7704 67.6256C38.9091 67.6994 39.0507 67.7722 39.1952 67.8422L39.699 68.0828C39.8172 68.1439 39.9063 68.2493 39.9471 68.376C39.951 68.3914 39.954 68.407 39.9562 68.4228C39.96 68.4492 39.9613 68.476 39.9602 68.5028C39.9594 68.5217 39.9574 68.5404 39.9543 68.559C39.9439 68.6199 39.921 68.6779 39.8869 68.7293Z" fill="white"/>
<path fill-rule="evenodd" clip-rule="evenodd" d="M78.8578 49.0002H49.8055C49.6812 49.0023 49.5626 49.0529 49.4754 49.1416C49.3882 49.2302 49.3393 49.3496 49.3393 49.4738V78.5338C49.3393 78.6573 49.3885 78.7759 49.4759 78.8634C49.5633 78.9508 49.6819 78.9998 49.8055 78.9998H78.8578C78.9814 78.9998 79.1 78.9508 79.1874 78.8634C79.2749 78.7759 79.324 78.6573 79.324 78.5338V49.4889C79.327 49.4259 79.3172 49.3628 79.2951 49.3037C79.2834 49.2721 79.2684 49.2422 79.2503 49.2143C79.2344 49.1895 79.2161 49.1662 79.1956 49.1447C79.1521 49.099 79.0996 49.0627 79.0415 49.0377C78.9835 49.0129 78.9209 49.0002 78.8578 49.0002ZM73.6473 72.5414C73.6483 72.6032 73.637 72.6645 73.614 72.722C73.591 72.7794 73.5569 72.8318 73.5135 72.8758C73.4701 72.9199 73.4183 72.9549 73.3613 72.9788C73.3043 73.0027 73.243 73.015 73.1812 73.015H70.7526C70.627 73.015 70.5065 72.965 70.4177 72.8762C70.3289 72.7875 70.2789 72.6669 70.2789 72.5414V60.2783L65.9256 72.6917C65.8962 72.7855 65.8369 72.867 65.7568 72.9241C65.6768 72.981 65.5803 73.0104 65.482 73.0074H63.1212C63.0251 73.0093 62.931 72.9803 62.8526 72.9248C62.7742 72.8694 62.7155 72.7903 62.6851 72.6992L58.3618 60.3835H58.3092V72.5414C58.3092 72.6032 58.2969 72.6643 58.273 72.7214C58.2491 72.7785 58.2141 72.8303 58.17 72.8736C58.1259 72.9169 58.0736 72.9513 58.0162 72.9742C57.9588 72.9971 57.8973 73.0085 57.8355 73.0074H55.4972C55.3728 73.0074 55.2535 72.9586 55.1649 72.8714C55.0762 72.7842 55.0255 72.6656 55.0235 72.5414V55.4815C55.0273 55.3577 55.0787 55.2403 55.1669 55.1534C55.2551 55.0666 55.3734 55.017 55.4972 55.0152H59.828C59.9271 55.017 60.0233 55.0488 60.1038 55.1066C60.1844 55.1643 60.2455 55.2452 60.2791 55.3385L64.279 67.4963L68.309 55.3309C68.3419 55.2379 68.4031 55.1575 68.484 55.1008C68.5649 55.0442 68.6614 55.0143 68.7602 55.0152H73.1661C73.2296 55.0163 73.2916 55.0301 73.3486 55.055C73.4033 55.0789 73.4535 55.1132 73.4962 55.1566C73.5207 55.1813 73.5421 55.2087 73.5603 55.2379C73.5717 55.256 73.5818 55.275 73.5906 55.2944C73.6178 55.355 73.6323 55.4213 73.6323 55.4888L73.6473 72.5414Z" fill="white"/>
<path d="M100.869 59.9549C100.446 59.4238 99.895 59.0097 99.2673 58.752C98.4804 58.4535 97.6424 58.3129 96.8012 58.3384H93.9817V69.6842H97.5155C98.0808 69.6824 98.642 69.5884 99.1771 69.4059C99.723 69.2172 100.216 68.9 100.613 68.4811C101.065 68.0039 101.409 67.4345 101.621 66.812C101.893 65.9981 102.022 65.1436 102.004 64.2857C102.008 63.4615 101.92 62.6393 101.741 61.8345C101.586 61.1535 101.289 60.5127 100.869 59.9549Z" fill="white"/>
<path fill-rule="evenodd" clip-rule="evenodd" d="M113.648 62.7294C113.364 59.1738 111.819 55.8367 109.292 53.3195C106.765 50.8021 103.422 49.2703 99.8659 49.0002H84.1743C84.1124 49.0002 84.0512 49.0125 83.9941 49.0364C83.9371 49.0603 83.8854 49.0953 83.842 49.1394C83.7986 49.1834 83.7644 49.2358 83.7414 49.2932C83.7184 49.3507 83.7071 49.4122 83.7081 49.4738V78.5338C83.7081 78.6573 83.7573 78.7759 83.8447 78.8634C83.8903 78.909 83.9444 78.9442 84.0033 78.9673C84.0572 78.9886 84.1152 78.9998 84.1743 78.9998H99.9636C103.521 78.7149 106.861 77.1693 109.38 74.6415C111.9 72.1135 113.434 68.7693 113.708 65.2106L113.648 62.7294ZM105.46 67.5413C105.16 68.5917 104.649 69.5691 103.956 70.4135C103.255 71.2298 102.378 71.8774 101.392 72.3082C100.255 72.7943 99.0272 73.0326 97.7907 73.0074H90.4975C90.3732 73.0056 90.2546 72.9547 90.1674 72.8661C90.0802 72.7774 90.0313 72.6581 90.0314 72.5338V55.4815C90.0313 55.357 90.0802 55.2377 90.1674 55.149C90.2546 55.0604 90.3732 55.0097 90.4975 55.0077H97.7907C98.8979 54.9981 99.9978 55.1867 101.039 55.5641C102.014 55.9227 102.899 56.4898 103.633 57.2257C104.395 58.0183 104.979 58.9642 105.347 60C105.779 61.2572 105.988 62.5805 105.964 63.9099C105.975 65.1385 105.806 66.3623 105.46 67.5413Z" fill="white"/>
</svg>
