<svg width="128" height="128" viewBox="0 0 128 128" fill="none" xmlns="http://www.w3.org/2000/svg">
<path d="M111.946 70.3532C111.946 68.9238 113.252 67.812 114.795 67.812C116.397 67.812 117.643 68.9767 117.643 70.3532C117.643 71.7297 116.338 72.8944 114.795 72.8944C113.252 72.8944 111.946 71.7826 111.946 70.3532Z" fill="white"/>
<path d="M26.378 63.5233C26.378 66.488 25.5473 68.7116 23.767 70.2998C21.9868 71.888 19.4945 72.6821 16.2901 72.6821H10V55.0527H16.6462C19.7912 55.0527 22.1648 55.741 23.8264 57.2233C25.5473 58.6527 26.378 60.7704 26.378 63.5233ZM20.9187 63.6821C20.9187 62.041 20.5626 60.8763 19.8505 60.0821C19.1978 59.341 18.0703 58.9174 16.6462 58.9174H15.222V68.7645H16.4088C18.011 68.7645 19.1385 68.341 19.9099 67.4939C20.5626 66.6469 20.9187 65.3763 20.9187 63.6821Z" fill="white"/>
<path d="M48.5679 55H43.6426V72.6824H48.5679V55Z" fill="white"/>
<path d="M64.826 66.0648C64.826 68.1824 64.2326 69.8766 62.9271 71.0942C61.6216 72.3119 59.8414 72.8942 57.5865 72.8942C55.3909 72.8942 53.67 72.3119 52.3645 71.0413C51.059 69.7707 50.4062 68.1295 50.4062 66.0648C50.4062 63.9472 50.9997 62.253 52.3052 61.0883C53.6106 59.8707 55.3909 59.2883 57.6458 59.2883C59.07 59.2883 60.3161 59.553 61.3843 60.0824C62.5117 60.6119 63.2832 61.406 63.8766 62.4119C64.5887 63.5236 64.826 64.6883 64.826 66.0648ZM55.5095 66.0648C55.5095 67.2295 55.6876 68.0236 55.9843 68.606C56.281 69.1883 56.815 69.453 57.6458 69.453C58.4766 69.453 58.9513 69.1883 59.3074 68.606C59.6041 68.0236 59.7821 67.1236 59.7821 66.0648C59.7821 64.9001 59.6041 64.106 59.3074 63.5236C59.0106 62.9942 58.4766 62.6766 57.6458 62.6766C56.9337 62.6766 56.3403 62.9413 55.9843 63.5236C55.6876 64.106 55.5095 64.9001 55.5095 66.0648Z" fill="white"/>
<path d="M71.7779 59.5H66.8527V72.6294H71.7779V59.5Z" fill="white"/>
<path d="M71.7779 55H66.8527V57.9647H71.7779V55Z" fill="white"/>
<path d="M81.7996 69.294C82.4523 69.294 83.2831 69.1351 84.1732 68.8704V72.2057C83.5205 72.4704 82.8677 72.6293 82.2743 72.7351C81.6809 72.841 80.9688 72.894 80.138 72.894C78.4765 72.894 77.2897 72.5234 76.5183 71.7293C75.8062 70.9881 75.3908 69.8234 75.3908 68.2881V62.8881H73.6699V59.4998H75.3908V56.2175L80.3754 55.4763V59.6057H83.5798V62.941H80.3754V68.0234C80.4941 68.9234 80.9095 69.294 81.7996 69.294Z" fill="white"/>
<path d="M93.3172 69.294C93.9699 69.294 94.8007 69.1351 95.6908 68.8704V72.2057C95.0381 72.4704 94.3853 72.6293 93.7919 72.7351C93.1985 72.841 92.4864 72.894 91.6556 72.894C89.9941 72.894 88.8073 72.5234 88.0359 71.7293C87.3238 70.9881 86.9084 69.8234 86.9084 68.2881V62.8881H85.1875V59.4998H86.9084V56.1646L91.893 55.4763V59.6057H95.0974V62.941H91.893V68.0234C91.9523 68.9234 92.4271 69.294 93.3172 69.294Z" fill="white"/>
<path d="M108.979 60.8236C107.792 59.7648 106.13 59.2883 103.994 59.2883C101.739 59.2883 99.9588 59.8707 98.7126 61.0883C97.4665 62.306 96.873 64.0001 96.873 66.2236C96.873 68.3413 97.5258 70.0354 98.8313 71.2001C100.196 72.3648 102.036 72.9472 104.409 72.9472C105.596 72.9472 106.546 72.8942 107.376 72.7354C108.148 72.5766 109.038 72.3648 109.75 71.9942L109.038 69.0295C108.504 69.2413 107.91 69.4001 107.436 69.506C106.724 69.6648 105.893 69.7177 105.062 69.7177C104.113 69.7177 103.341 69.506 102.807 69.1354C102.273 68.7119 101.976 68.1295 101.976 67.3883H110.818V65.3236C110.759 63.3648 110.106 61.8824 108.979 60.8236ZM101.976 64.4766C102.036 63.7883 102.273 63.206 102.629 62.8883C102.985 62.5707 103.46 62.4119 104.113 62.4119C104.706 62.4119 105.299 62.5707 105.655 62.9413C106.012 63.3119 106.19 63.7883 106.249 64.4766H101.976Z" fill="white"/>
<path d="M39.9649 60.8236C38.7187 59.7648 37.1165 59.2883 34.9803 59.2883C32.7253 59.2883 30.9451 59.8707 29.6989 61.0883C28.4528 62.306 27.8594 64.0001 27.8594 66.2236C27.8594 68.3413 28.5121 70.0354 29.8176 71.2001C31.1825 72.3648 33.022 72.9472 35.3956 72.9472C36.5825 72.9472 37.5319 72.8942 38.3627 72.7354C39.1341 72.5766 40.0242 72.3648 40.7363 71.9942L40.0242 68.9766C39.4901 69.1883 38.8967 69.3472 38.422 69.453C37.7099 69.6119 36.8792 69.6648 36.0484 69.6648C35.0989 69.6648 34.3275 69.453 33.7934 69.0824C33.2594 68.6589 32.9627 68.0766 32.9627 67.3354H41.8044V65.3236C41.7451 63.3648 41.0923 61.8824 39.9649 60.8236ZM32.9033 64.4766C32.9627 63.7883 33.2 63.206 33.5561 62.8883C33.9121 62.5707 34.3868 62.4119 35.0396 62.4119C35.6923 62.4119 36.2264 62.5707 36.5825 62.9413C36.9385 63.3119 37.1165 63.7883 37.1759 64.4766H32.9033Z" fill="white"/>
</svg>
