<svg width="128" height="128" viewBox="0 0 128 128" fill="none" xmlns="http://www.w3.org/2000/svg">
<path d="M23.734 71.608V57.18C23.734 56.834 24.096 56.495 24.096 56.495H21C21 56.495 21.362 56.843 21.362 57.18V71.609C21.362 71.952 21 72.295 21 72.295H24.096C24.096 72.295 23.734 71.948 23.734 71.608ZM44.43 71.052V57.18C44.43 56.834 44.791 56.495 44.791 56.495H41.695C41.695 56.495 42.056 56.843 42.056 57.18V68.416L31.211 56.891L30.854 56.495H28.403C28.403 56.495 28.764 56.843 28.764 57.18V57.856V71.609C28.764 71.953 28.403 72.296 28.403 72.296H31.499C31.499 72.296 31.138 71.949 31.138 71.609V60.49L41.946 71.972L42.237 72.294H44.793C44.793 72.294 44.432 71.947 44.432 71.607V71.052H44.43ZM65.977 64.501C65.977 64.155 66.266 63.808 66.266 63.808H66.198H57.476V65.582V66.303C57.476 66.303 57.538 66.236 57.636 66.158C57.765 66.054 57.957 65.936 58.151 65.935H63.667V66.914V69.242C61.908 70.374 59.703 70.688 58.055 70.688C53.549 70.688 50.637 68.27 50.637 64.527C50.637 60.807 53.54 58.308 57.861 58.308C60.274 58.308 62.32 58.906 64.113 60.131L65.451 58.193C63.375 56.737 60.938 56 58.206 56C55.428 56 52.909 56.8 51.114 58.253C49.209 59.795 48.202 61.964 48.202 64.524C48.202 67.063 49.209 69.216 51.114 70.752C52.911 72.202 55.43 73 58.206 73C60.418 73 63.106 72.36 65.029 71.43C65.372 71.266 65.69 71.09 65.977 70.909V64.501ZM73.152 56.495H70.056C70.056 56.495 70.417 56.843 70.417 57.18V71.609C70.417 71.953 70.056 72.296 70.056 72.296H73.152C73.152 72.296 72.791 71.949 72.791 71.609V57.18C72.791 56.834 73.152 56.495 73.152 56.495ZM84.282 71.143C83.746 70.642 76.344 64.04 76.344 64.04C76.344 64.04 83.017 57.642 83.369 57.316C83.704 57.006 84.674 56.483 84.674 56.483H80.335C80.335 56.483 80.734 56.824 80.398 57.17C80.113 57.461 73.082 64.03 73.082 64.03C80.724 70.971 81.07 71.191 81.439 71.597C81.747 71.933 81.305 72.283 81.305 72.283H85.971C85.972 72.283 84.684 71.518 84.282 71.143ZM99.782 66.403H92.565C93.788 63.88 95.199 60.971 96.173 58.962C97.149 60.972 98.56 63.88 99.782 66.403ZM97.804 56.495H97.37H94.977H94.543C94.543 56.495 94.738 56.84 94.557 57.182C94.374 57.524 87.437 71.212 87.262 71.553C87.087 71.894 86.524 72.295 86.524 72.295H90.448C90.448 72.295 89.885 71.956 90.045 71.608C90.091 71.512 90.681 70.291 91.509 68.583H100.839C101.667 70.291 102.258 71.513 102.302 71.608C102.463 71.956 101.9 72.295 101.9 72.295H105.824C105.824 72.295 105.261 71.894 105.086 71.553C104.911 71.212 97.973 57.523 97.791 57.182C97.608 56.84 97.804 56.495 97.804 56.495ZM102.786 56.896H103.557V56.501H101.587V56.897H102.358V58.882H102.786V56.896ZM107 58.882V56.501H106.235L105.591 57.793L104.947 56.501H104.146V58.882H104.56V56.771H104.644L105.449 58.321H105.716L106.514 56.796H106.581V58.883H107V58.882Z" fill="white"/>
</svg>
