<svg width="128" height="128" viewBox="0 0 128 128" fill="none" xmlns="http://www.w3.org/2000/svg">
<g clip-path="url(#clip0_447_2147)">
<path d="M63.8003 50.462C67.7939 50.462 71.0313 47.2246 71.0313 43.231C71.0313 39.2374 67.7939 36 63.8003 36C59.8068 36 56.5693 39.2374 56.5693 43.231C56.5693 47.2246 59.8068 50.462 63.8003 50.462Z" fill="white"/>
<path d="M48.5352 79.2827C49.6944 79.2827 50.6471 78.5022 51.0373 77.4119C51.4161 76.3444 51.4161 75.2885 51.6227 74.1981C52.0474 71.8911 53.7346 70.3071 55.9613 70.3071H60.5524V79.2827H62.5151V84.0001H59.6801V82.0833H51.3357V84.0001H48.5352V79.2827ZM53.1722 79.2827H57.5452V73.1307H56.4892C55.2956 73.1307 54.7676 73.9111 54.4921 74.8868C54.056 76.3674 54.2855 78.0776 53.1722 79.2827Z" fill="white"/>
<path d="M74.8303 70.2957V82.0604H71.9838V77.5381H67.0713V82.0604H64.2363V70.2957H67.0713V74.8179H71.9838V70.2957H74.8303Z" fill="white"/>
<path d="M42.4751 82.2898C39.1236 82.2898 36.3574 79.5581 36.3574 76.1147C36.3574 72.7058 39.1121 69.9741 42.4751 69.9741C45.8266 69.9741 48.5927 72.7058 48.5927 76.1147C48.5927 79.5581 45.8266 82.2898 42.4751 82.2898ZM42.4751 72.9124C40.696 72.9124 39.2498 74.3357 39.2498 76.1606C39.2498 78.0086 40.696 79.4318 42.4751 79.4318C44.2541 79.4318 45.7003 78.0086 45.7003 76.1606C45.7003 74.3357 44.2656 72.9124 42.4751 72.9124Z" fill="white"/>
<path d="M34.0038 71.6615C33.2463 70.8695 32.2018 70.3645 31.0311 70.3186H26.3252V82.0948H29.2405V78.8007C29.7341 78.9958 30.2735 79.0991 30.836 79.0991C32.0526 79.0991 33.143 78.6055 33.935 77.8136C34.7269 77.0216 35.2205 75.9197 35.2205 74.7146C35.2319 73.5094 34.7614 72.442 34.0038 71.6615ZM31.9034 75.782C31.6279 76.0575 31.2377 76.2411 30.8015 76.2411C29.9407 76.2411 29.252 75.541 29.252 74.6916V73.1421H30.8015C31.6624 73.1421 32.351 73.8423 32.351 74.6916C32.3625 75.1163 32.1789 75.5066 31.9034 75.782Z" fill="white"/>
<path d="M77.4014 82.0604V70.3071H80.2479V77.7562L85.1718 70.3071H87.9953V82.0604H85.1718V74.6113L80.2479 82.0604H77.4014Z" fill="white"/>
<path d="M96.4892 75.7246L100.908 70.2957H97.2352L93.4017 75.5066V70.2957H90.5781V82.0718H93.4017V76.3789L97.637 82.0489L101.252 82.0718L96.4892 75.7246Z" fill="white"/>
<path d="M39.6862 55.1104V55.8679C38.8368 55.3858 37.8498 55.1104 36.8168 55.1104C33.6145 55.1104 31.1123 57.6584 31.1123 60.987C31.1123 64.304 33.6145 66.8865 36.8168 66.8865H42.5786V55.1104H40.7881H39.6862ZM39.6862 63.9597H36.8168C35.2213 63.9597 33.9932 62.7086 33.9932 60.987C33.9932 59.2653 35.2328 58.0372 36.8282 58.0372C38.2974 58.0372 39.6977 59.2079 39.6977 60.6426V63.9597H39.6862Z" fill="white"/>
<path d="M78.1137 59.6326H73.2012V55.0759H70.3662V66.8521H73.2012V62.3528H78.1137V66.8865H80.9602V55.1104H78.1137V59.6326Z" fill="white"/>
<path d="M88.478 67.1162C85.1265 67.1162 82.3604 64.3845 82.3604 60.9411C82.3604 57.5322 85.115 54.8005 88.478 54.8005C91.8295 54.8005 94.5956 57.5322 94.5956 60.9411C94.5956 64.3959 91.8295 67.1162 88.478 67.1162ZM88.478 57.7388C86.6989 57.7388 85.2527 59.1621 85.2527 60.987C85.2527 62.835 86.6989 64.2582 88.478 64.2582C90.2571 64.2582 91.7032 62.835 91.7032 60.987C91.7032 59.1621 90.2571 57.7388 88.478 57.7388Z" fill="white"/>
<path d="M103.767 58.8981C103.767 58.8292 103.778 58.7604 103.778 58.703C103.778 58.5308 103.767 58.3586 103.744 58.1865C103.491 56.2812 101.861 54.8005 99.8871 54.8005C97.7407 54.8005 95.9961 56.5452 95.9961 58.6915C95.9961 58.7374 95.9961 58.7718 95.9961 58.8178V66.8407H102.607C104.811 66.8407 106.59 65.0272 106.59 62.7776C106.59 60.9526 105.396 59.4031 103.767 58.8981ZM102.676 63.8909H98.877V58.3242C98.9344 57.8307 99.3591 57.4404 99.8641 57.4404C100.415 57.4404 100.863 57.8881 100.863 58.439C100.863 58.6685 100.782 58.8866 100.645 59.0588C100.599 59.1162 100.427 59.3113 100.404 59.3343H100.392V60.4476V61.7101H102.676C103.216 61.7561 103.629 62.2037 103.629 62.7661C103.652 63.3515 103.25 63.8909 102.676 63.8909Z" fill="white"/>
<path d="M57.2812 66.8636V55.0759H60.1392V62.5365L65.0747 55.0759H67.9097V66.8636H65.0747V59.403L60.1392 66.8636H57.2812Z" fill="white"/>
<path d="M26.911 60.5049L31.33 55.0759H27.6571L23.8235 60.2868V55.0759H21V66.8521H23.8235V61.1591L28.0473 66.8292L31.6743 66.8521L26.911 60.5049Z" fill="white"/>
<path d="M54.8138 55.1104V66.898H51.9673V58.129H50.7621C49.8209 58.129 49.2356 58.8751 49.0175 59.7933C48.5469 61.7675 48.6847 63.2251 47.996 64.832C47.4565 66.0946 46.1825 67.3227 43.9443 66.9898V64.0745C44.7478 64.086 45.3102 63.6498 45.6086 62.8464C46.0103 61.7675 46.0333 60.3557 46.2743 59.0587C46.7334 56.6484 48.3633 55.0989 50.6014 55.0989L54.8138 55.1104Z" fill="white"/>
</g>
<defs>
<clipPath id="clip0_447_2147">
<rect width="85.5897" height="48" fill="white" transform="translate(21 36)"/>
</clipPath>
</defs>
</svg>
