<svg width="128" height="128" viewBox="0 0 128 128" fill="none" xmlns="http://www.w3.org/2000/svg">
<path d="M57.8317 64.082C57.8317 68.5006 55.1312 70.5895 51.7511 70.5895H49.6853V67.9382H51.5901C53.6289 67.9382 54.988 66.8404 54.988 64.082C54.988 61.3503 53.7027 59.9843 51.5297 59.9843C49.4371 59.9843 47.9415 61.2699 47.9415 64.0284V75.1157H45.1247V57.6811H47.9415V59.181H48.3439C49.2829 57.9223 50.6712 57.3597 52.1198 57.3597C55.2318 57.3597 57.8317 59.6093 57.8317 64.082ZM39.319 62.9302L37.441 62.7427C35.9656 62.6088 35.1875 62.2071 35.1875 61.3501C35.1875 60.3324 36.1802 59.7432 37.602 59.7432C39.0776 59.7432 40.0164 60.4395 40.0969 61.4304H42.8065C42.6992 58.913 40.7409 57.3597 37.6289 57.3597C34.4901 57.3597 32.3707 59.0201 32.3707 61.4572C32.3707 63.4926 33.6584 64.8048 36.5826 65.0994L38.4873 65.2869C39.6409 65.394 40.419 65.635 40.419 66.733C40.419 67.724 39.6945 68.447 37.7899 68.447C36.0359 68.447 35.1716 67.6525 34.8684 66.5874H31.937C32.2291 69.022 34.2777 70.9109 37.7899 70.9109C41.0896 70.9109 43.2357 69.1701 43.2357 66.5992C43.2357 64.3228 41.7335 63.1712 39.319 62.9302ZM68.7414 66.5874C68.2995 67.6006 67.2436 68.3668 65.7453 68.3668C63.6797 68.3668 62.1505 67.0277 62.1505 64.1353C62.1505 61.3769 63.5723 59.8503 65.7721 59.8503C67.7305 59.8503 68.8573 61.0287 68.9646 62.7962H63.8942V64.8318H71.7278V63.4926C71.7278 59.77 69.2597 57.3597 65.7453 57.3597C62.4724 57.3597 59.3335 59.5825 59.3335 64.1353C59.3335 68.688 62.4724 70.9109 65.7453 70.9109C68.7389 70.9109 70.8735 69.0701 71.5368 66.5874H68.7414ZM24.336 57.3597C21.2509 57.3597 18.9438 58.9668 18.6755 61.4304H21.7069C21.9216 60.5201 22.7532 59.8505 24.336 59.8505C26.375 59.8505 27.0456 60.9219 27.0456 62.234V66.6527C25.8921 67.9652 24.5507 68.5809 23.2093 68.5809C21.8143 68.5809 20.8485 67.9114 20.8485 66.7065C20.8485 65.5546 21.5996 64.8318 23.0483 64.8318H25.3018V62.7962H22.9678C19.7486 62.7962 17.9512 64.4033 17.9512 66.867C17.9512 69.1701 19.6949 70.9109 22.5654 70.9109C24.1751 70.9109 25.5969 70.2684 26.6432 69.4914H27.0456V70.5895H29.8625V61.966C29.8625 58.7791 27.6895 57.3597 24.336 57.3597ZM5.22363 70.5895H8.04051V52.9141H5.22363V70.5895ZM17.0544 57.6811H13.6206L9.51601 63.0642V64.7514L13.7279 70.5895H17.2154L12.2792 63.8943L17.0544 57.6811ZM118.884 57.6811L116.577 62.7962C116.014 64.0284 115.478 65.2333 115.317 66.0369H114.914C114.753 65.2333 114.19 64.055 113.626 62.8232L111.319 57.6811H108.207L113.626 69.2773L110.944 75.1157H113.948L121.996 57.6811H118.884ZM107.584 57.6811H104.15L100.046 63.0642V64.7514L104.258 70.5895H107.745L102.809 63.8943L107.584 57.6811ZM89.9476 62.9302L88.0697 62.7427C86.5941 62.6088 85.8162 62.2071 85.8162 61.3501C85.8162 60.3324 86.8088 59.7432 88.2307 59.7432C89.7061 59.7432 90.6451 60.4395 90.7256 61.4304H93.4351C93.3278 58.913 91.3695 57.3597 88.2575 57.3597C85.1187 57.3597 82.9994 59.0201 82.9994 61.4572C82.9994 63.4926 84.2871 64.8048 87.2112 65.0994L89.116 65.2869C90.2695 65.394 91.0475 65.635 91.0475 66.733C91.0475 67.724 90.3232 68.447 88.4184 68.447C86.6644 68.447 85.8002 67.6525 85.4969 66.5874H82.5656C82.8576 69.022 84.9063 70.9109 88.4184 70.9109C91.7182 70.9109 93.8644 69.1701 93.8644 66.5992C93.8644 64.3228 92.362 63.1712 89.9476 62.9302ZM95.7533 70.5895H98.5701V52.9141H95.7533V70.5895ZM77.1781 59.181H76.7757V57.6811H73.9589V70.5895H76.7757V63.8407C76.7757 61.5375 77.8418 60.1985 79.9414 60.1985H81.7246V57.3597H80.6925C78.7444 57.3597 77.9164 58.0932 77.1781 59.181Z" fill="white"/>
</svg>
