<svg width="128" height="128" viewBox="0 0 128 128" fill="none" xmlns="http://www.w3.org/2000/svg">
<path opacity="0.5" d="M22.2155 46L12 59.92H22.2155V46Z" fill="white"/>
<path d="M49.2589 57.3536C49.2559 57.6332 49.1438 57.9007 48.9463 58.0989C48.7489 58.297 48.4818 58.4102 48.2022 58.4142H47.3622V56.3045H48.1906C48.2396 56.3038 48.2884 56.3065 48.3369 56.3126C48.3454 56.3136 48.3538 56.3148 48.3623 56.3161C48.3871 56.3199 48.4117 56.3244 48.4362 56.3298C48.491 56.3421 48.5449 56.3588 48.5974 56.3798C48.7266 56.4316 48.8443 56.5084 48.9437 56.606C48.9776 56.6393 49.0092 56.6747 49.0382 56.7122C49.0941 56.7844 49.1406 56.8637 49.1762 56.9482C49.2303 57.0765 49.2584 57.2143 49.2589 57.3536Z" fill="white"/>
<path d="M56.227 60.8227C56.0738 60.9758 55.8661 61.0619 55.6494 61.0619H54.0314V59.4284H55.6494C55.8661 59.4284 56.0738 59.5144 56.227 59.6676C56.3801 59.8208 56.4662 60.0285 56.4662 60.2451C56.4662 60.4618 56.3801 60.6695 56.227 60.8227Z" fill="white"/>
<path d="M55.6541 57.6369C55.5009 57.79 55.2932 57.8761 55.0765 57.8761H54.0314V56.2426H55.0765C55.2932 56.2426 55.5009 56.3286 55.6541 56.4818C55.8072 56.635 55.8933 56.8427 55.8933 57.0593C55.8933 57.276 55.8072 57.4837 55.6541 57.6369Z" fill="white"/>
<path d="M63.7041 60.0942C63.7041 60.7097 63.255 61.0309 62.6473 61.0309H61.4512V59.138H62.6473C62.7814 59.122 62.9174 59.1348 63.0461 59.1757C63.1748 59.2168 63.2933 59.2848 63.3934 59.3754C63.4936 59.4661 63.5731 59.5771 63.6267 59.7011C63.6803 59.8251 63.7067 59.9591 63.7041 60.0942Z" fill="white"/>
<path d="M50.193 71.8696C50.7969 71.8696 51.2498 71.5483 51.2498 70.9909C51.2498 70.4374 50.7969 70.1006 50.193 70.1006H48.7608V71.8696H50.193Z" fill="white"/>
<path d="M72.3085 71.8696C72.9162 71.8696 73.3691 71.5484 73.3691 70.9329C73.3718 70.7974 73.3454 70.6631 73.2916 70.5388C73.2378 70.4144 73.1578 70.3032 73.0572 70.2125C72.9566 70.1218 72.8377 70.0539 72.7085 70.0131C72.5793 69.9725 72.4429 69.96 72.3085 69.9768H71.1124V71.8696H72.3085Z" fill="white"/>
<path d="M88.1515 71.8696C88.7593 71.8696 89.2083 71.5484 89.2083 70.9329C89.2109 70.7978 89.1845 70.6638 89.131 70.5398C89.0774 70.4158 88.9978 70.3048 88.8976 70.2141C88.7975 70.1235 88.679 70.0555 88.5503 70.0145C88.4216 69.9735 88.2856 69.9607 88.1515 69.9768H86.9554V71.8696H88.1515Z" fill="white"/>
<path fill-rule="evenodd" clip-rule="evenodd" d="M22.0615 46H111.094V82H22.0615V46ZM75.7026 53.6534C76.1026 53.2701 76.339 52.7471 76.3625 52.1935H75.2438C75.2438 52.4656 75.1357 52.7266 74.9433 52.9189C74.751 53.1113 74.49 53.2193 74.218 53.2193C73.9459 53.2193 73.685 53.1113 73.4926 52.9189C73.3002 52.7266 73.1922 52.4656 73.1922 52.1935H72.0696C72.0931 52.7471 72.3295 53.2701 72.7295 53.6534C73.1294 54.0368 73.662 54.2508 74.216 54.2508C74.77 54.2508 75.3026 54.0368 75.7026 53.6534ZM72.0392 54.5664H70.1734V62.8619L75.3992 58.4761V62.7728H77.265V54.4735L72.0392 58.8593V54.5664ZM35.1996 56.3355H32.0602V62.7728H30.1906V54.5664H37.0654V62.7728H35.1996V56.3355ZM43.9696 54.5664H38.8367V62.7728H43.9696V60.938H40.7025V59.5522H43.269V57.7677H40.7025V56.3819H43.9696V54.5664ZM48.2177 54.5664H45.4809V62.7729H47.3467V60.1368H48.2177C48.5921 60.1508 48.9656 60.0891 49.3157 59.9553C49.6658 59.8217 49.9853 59.6188 50.2552 59.3588C50.5251 59.0987 50.7398 58.787 50.8864 58.4421C51.033 58.0972 51.1086 57.7264 51.1086 57.3516C51.1086 56.9769 51.033 56.6059 50.8864 56.2611C50.7398 55.9162 50.5251 55.6045 50.2552 55.3445C49.9853 55.0845 49.6658 54.8816 49.3157 54.7479C48.9656 54.6142 48.5921 54.5525 48.2177 54.5664ZM57.0086 55.2745C56.548 54.8189 55.9257 54.5643 55.2778 54.5664L52.1462 54.578V62.7845H55.8004C56.1253 62.7912 56.4482 62.7332 56.7506 62.6141C57.0529 62.495 57.3285 62.317 57.5615 62.0905C57.7945 61.864 57.9802 61.5935 58.1078 61.2947C58.2354 60.9957 58.3024 60.6746 58.3049 60.3496C58.314 59.9502 58.2098 59.5564 58.0043 59.2139C57.7987 58.8713 57.5003 58.5941 57.1436 58.4141C57.3338 58.2309 57.4844 58.0107 57.5863 57.767C57.6881 57.5234 57.739 57.2614 57.7359 56.9974C57.7308 56.3495 57.4693 55.7301 57.0086 55.2745ZM65.5079 60.0942C65.5079 58.569 64.2963 57.427 62.6782 57.427H61.4666V54.5664H59.6008V62.7573H62.6782C64.2963 62.7573 65.5079 61.6309 65.5079 60.0942ZM66.5353 54.5664H68.4011V62.7728H66.5353V54.5664ZM100.537 64.9504C100.276 65.0444 99.9982 65.0832 99.7212 65.0645C99.4439 65.0838 99.1656 65.0454 98.904 64.9517C98.6423 64.8578 98.403 64.7109 98.201 64.5199C97.9991 64.3288 97.839 64.098 97.7309 63.842C97.6227 63.5859 97.5689 63.3102 97.5728 63.0323H98.6954C98.6954 63.3043 98.8035 63.5653 98.9958 63.7576C99.1882 63.95 99.4491 64.058 99.7212 64.058C99.9932 64.058 100.254 63.95 100.447 63.7576C100.639 63.5653 100.747 63.3043 100.747 63.0323H101.866C101.87 63.3098 101.816 63.5852 101.708 63.8409C101.6 64.0968 101.44 64.3274 101.239 64.5184C101.037 64.7093 100.798 64.8564 100.537 64.9504ZM34.3286 69.4077L30.1906 65.3122V73.6115H32.0564V69.578L34.3286 71.8232L36.5815 69.578V73.6115H38.4473V65.3122L34.3286 69.4077ZM40.2369 65.4051H45.3698V67.2206H42.1027V68.6064H44.6692V70.3909H42.1027V71.7767H45.3698V73.6115H40.2369V65.4051ZM48.7802 68.3741H50.2434C51.8421 68.3741 53.0731 69.5315 53.0731 70.9909C53.0731 72.4503 51.8615 73.6115 50.2434 73.6115H46.9143V65.4051H52.3724V67.2361H48.7802V68.3741ZM54.3115 65.4051H59.4444V67.2206H56.1773V68.6064H58.7438V70.3909H56.1773V71.7767H59.4444V73.6115H54.3115V65.4051ZM64.2486 65.3122L68.3401 73.6115H66.3621L64.2486 69.2993L62.1505 73.6115H60.1724L64.2486 65.3122ZM72.3085 68.2657C73.9266 68.2657 75.1382 69.4077 75.1382 70.9329C75.1382 72.458 73.9266 73.596 72.3085 73.596H69.2117V65.4051H71.0775V68.2657H72.3085ZM76.2672 65.4051H78.133V68.6064H81.462V65.4051H83.3278V73.6115H81.462V70.3909H78.133V73.6115H76.2672V65.4051ZM88.1825 68.2657C89.8006 68.2657 91.0122 69.4077 91.0122 70.9329C91.0122 72.458 89.8006 73.596 88.1825 73.596H85.0857V65.4051H86.9515V68.2657H88.1825ZM92.0383 65.4051H93.9041V73.6115H92.0383V65.4051ZM97.5423 65.4051H95.6764V73.7006L100.902 69.3148V73.6115H102.768V65.3122L97.5423 69.6981V65.4051Z" fill="white"/>
</svg>
