<svg width="128" height="128" viewBox="0 0 128 128" fill="none" xmlns="http://www.w3.org/2000/svg">
<path d="M68.626 69.8655H72.8007V84H78.6194V69.8655H82.6675V64.9436H68.626V69.8655Z" fill="white"/>
<path d="M37.8584 45.069V51.839L38.9277 52.9079L39.997 51.839V45.069L38.9277 44L37.8584 45.069Z" fill="white"/>
<path d="M25.501 45.069V51.839L26.5703 52.9079L27.6396 51.839V45.069L26.5703 44L25.501 45.069Z" fill="white"/>
<path d="M25.501 60.747L26.5703 61.8159L27.6396 60.747V53.9769L26.5703 52.908L25.501 53.9769V60.747Z" fill="white"/>
<path d="M27.8779 45.0688V46.4941L32.6304 52.9078V49.701L29.3037 45.0688H27.8779Z" fill="white"/>
<path d="M32.8643 49.701V52.9078L37.4979 46.4941V45.0688H36.0722L32.8643 49.701Z" fill="white"/>
<path d="M37.8584 60.747L38.9277 61.8159L39.997 60.747V53.9769L38.9277 52.908L37.8584 53.9769V60.747Z" fill="white"/>
<path d="M44.3965 53.9768H50.0994L51.1688 52.9078L50.0994 51.8389H44.3965L43.3271 52.9078L44.3965 53.9768Z" fill="white"/>
<path d="M43.2051 59.6782L42.1357 60.7472L43.2051 61.8162H50.0962L51.1655 60.7472L50.0962 59.6782H43.2051Z" fill="white"/>
<path d="M50.332 45.069V51.7202L51.4013 52.7892L52.4707 51.7202V45.069L51.4013 44L50.332 45.069Z" fill="white"/>
<path d="M50.332 54.2145V59.5592L51.4013 60.6282L52.4707 59.5592V54.2145L51.4013 53.1455L50.332 54.2145Z" fill="white"/>
<path d="M44.2744 51.7202V45.069L43.2051 44L42.1357 45.069V51.7202L43.2051 52.7892L44.2744 51.7202Z" fill="white"/>
<path d="M65.54 60.8656L66.6094 61.8158L67.6786 60.8656V54.0956L66.6094 53.0266L65.54 53.9768V60.8656Z" fill="white"/>
<path d="M59.7216 44L58.6523 45.069L59.7216 46.1379H65.4246L67.5632 44H59.7216Z" fill="white"/>
<path d="M65.54 51.9575L66.6094 53.0265L67.6786 51.9575V44.2373L65.54 46.3752V51.9575Z" fill="white"/>
<path d="M57.3438 59.5591L58.4131 60.6281L59.4823 59.5591V54.0956L58.4131 53.0266L57.3438 54.0956V59.5591Z" fill="white"/>
<path d="M57.3438 46.3756V51.9579L58.4131 53.0269L59.4823 51.9579V46.3756L58.4131 45.3066L57.3438 46.3756Z" fill="white"/>
<path d="M55.6787 59.7966L54.6094 60.8656L55.6787 61.8158H57.2233L58.2925 60.8656L57.2233 59.7966H55.6787Z" fill="white"/>
<path d="M73.5039 53.9768H79.4445L80.5136 52.9078L79.4445 51.8389H73.5039L72.4346 52.9078L73.5039 53.9768Z" fill="white"/>
<path d="M79.5576 54.2145V59.5592L80.6268 60.6282L81.6964 59.5592V54.2145L80.6268 53.1455L79.5576 54.2145Z" fill="white"/>
<path d="M73.3818 51.7202V45.069L72.3125 44L71.2432 45.069V51.7202L72.3125 52.7892L73.3818 51.7202Z" fill="white"/>
<path d="M73.499 59.6782L71.3604 61.8162H79.4396L80.5087 60.7472L79.4396 59.6782H73.499Z" fill="white"/>
<path d="M73.3818 54.2145L72.3125 53.1455L71.2432 54.2145V61.6971L73.3818 59.5592V54.2145Z" fill="white"/>
<path d="M87.0457 44L85.9766 45.069L87.0457 46.1379H91.3229L92.3921 45.069L91.3229 44H87.0457Z" fill="white"/>
<path d="M84.792 46.3756V51.9579L85.8612 53.0269L86.9303 51.9579V46.3756L85.8612 45.3066L84.792 46.3756Z" fill="white"/>
<path d="M84.5529 44H80.2752L79.2061 45.069L80.2752 46.1379H84.5529L85.622 45.069L84.5529 44Z" fill="white"/>
<path d="M84.792 60.8656L85.8612 61.8158L86.9303 60.8656V54.0956L85.8612 53.0266L84.792 54.0956V60.8656Z" fill="white"/>
<path d="M93.4639 45.069V51.839L94.533 52.9079L95.6022 51.839V45.069L94.533 44L93.4639 45.069Z" fill="white"/>
<path d="M95.957 59.3218V60.7471H97.3828L101.422 55.4023V53.9771H99.9965L95.957 59.3218Z" fill="white"/>
<path d="M101.66 45.069V51.839L102.73 52.9079L103.799 51.839V45.069L102.73 44L101.66 45.069Z" fill="white"/>
<path d="M101.66 60.747L102.73 61.8159L103.799 60.747V53.9769L102.73 52.908L101.66 53.9769V60.747Z" fill="white"/>
<path d="M93.4639 60.747L94.533 61.8159L95.6022 60.747V53.9769L94.533 52.908L93.4639 53.9769V60.747Z" fill="white"/>
<path d="M44.2143 68.351C42.8508 67.4676 41.1152 67.089 39.0077 67.089H38.7597V64.9436H33.3056V66.9628H33.0576C30.9501 66.9628 29.2145 67.3414 27.851 68.2248C25.9915 69.4869 25 71.3799 25 74.1563C25 76.9327 25.9915 78.8258 27.851 80.0878C29.2145 80.9712 30.9501 81.476 33.0576 81.476H33.3056V84H38.7597V81.476H39.0077C41.1152 81.476 42.9748 80.9712 44.2143 80.0878C46.0738 78.8258 47.0653 76.9327 47.0653 74.1563C47.0653 71.5061 46.0738 69.4869 44.2143 68.351ZM33.4296 77.1851H33.0576C32.3136 77.1851 31.5701 76.9327 31.0741 76.5541C30.4546 76.0494 30.2066 75.2921 30.2066 74.2825C30.2066 73.2729 30.4546 72.5157 31.0741 72.0109C31.5701 71.5061 32.1901 71.3799 33.0576 71.3799H33.4296V77.1851ZM40.8672 76.5541C40.3712 77.0589 39.7517 77.1851 38.8837 77.1851H38.5117V71.2537H38.8837C39.6277 71.2537 40.3712 71.5061 40.8672 71.8847C41.4872 72.3895 41.7347 73.1467 41.7347 74.1563C41.8587 75.1659 41.4872 76.0494 40.8672 76.5541Z" fill="white"/>
<path d="M93.7013 64.9436C90.567 64.9436 88.1852 65.9466 86.3045 67.8271C84.5492 69.5823 83.6719 71.839 83.6719 74.4718C83.6719 77.1046 84.5492 79.3613 86.3045 81.1165C88.1852 82.9971 90.6924 84 93.7013 84C96.8356 84 99.2179 82.9971 101.099 81.1165C102.854 79.3613 103.731 77.1046 103.731 74.4718C103.731 71.839 102.854 69.5823 101.099 67.8271C99.2179 65.9466 96.7107 64.9436 93.7013 64.9436ZM96.7107 77.7315C95.8328 78.6091 94.83 78.9852 93.7013 78.9852C92.4477 78.9852 91.4449 78.6091 90.6924 77.7315C89.815 76.8539 89.4388 75.8509 89.4388 74.4718C89.4388 73.2181 89.815 72.0898 90.6924 71.2122C91.5703 70.3346 92.5731 69.9584 93.7013 69.9584C94.9554 69.9584 95.9582 70.3346 96.7107 71.2122C97.5881 72.0898 97.9643 73.0927 97.9643 74.4718C97.9643 75.8509 97.5881 76.8539 96.7107 77.7315Z" fill="white"/>
<path d="M51.25 75.9664L51.4988 76.8367L52.2447 76.5881L51.9959 75.7178L51.25 75.9664Z" fill="white"/>
<path d="M64.1873 69.3773L64.3117 69.5016H64.4361H64.5605L64.6844 69.6259V69.5016V69.3773H64.5605H64.4361H64.3117H64.1873L64.0629 69.2529H63.9385L64.0629 69.3773H64.1873Z" fill="white"/>
<path d="M59.4572 76.7122V76.4636L59.3328 76.215L59.2089 75.9663L59.0845 75.842L58.9601 75.7177L58.8357 75.5934L58.7113 75.469L58.5869 75.3447L58.4625 75.2203L58.3381 75.096L58.0892 74.9717H57.8404H57.5921H57.3433H57.0945H56.8457H56.5969L56.348 75.096L56.0992 75.2203L55.9753 75.3447L55.8509 75.469L55.7265 75.5934L55.6021 75.7177L55.4777 75.842L55.3533 75.9663L55.2289 76.215L55.1045 76.4636V76.7122V76.9609V77.2096V77.4582V77.7069V77.9555L55.2289 78.2041L55.3533 78.4528L55.4777 78.5772L55.6021 78.7015L55.7265 78.8258L55.8509 78.9501L55.9753 79.0744L56.0992 79.1988L56.2236 79.3231L56.4725 79.4474H56.7213H56.9701H57.2189H57.4677H57.716H57.9648L58.2136 79.3231L58.4625 79.1988L58.5869 79.0744L58.7113 78.9501L58.8357 78.8258L58.9601 78.7015L59.0845 78.5772L59.2089 78.4528L59.3328 78.2041L59.4572 77.9555V77.7069V77.4582V77.2096V76.9609V76.7122ZM59.0845 77.2096V77.4582V77.7069L58.9601 77.8312L58.8357 77.9555L58.7113 78.0798L58.5869 78.2041L58.4625 78.3285L58.3381 78.4528L58.2136 78.5772L58.0892 78.7015H57.9648H57.8404H57.716H57.5921H57.4677H57.3433H57.2189H57.0945H56.9701L56.8457 78.5772L56.7213 78.4528L56.5969 78.3285L56.4725 78.2041L56.348 78.0798L56.2236 77.9555H55.9753L55.8509 77.8312L55.7265 77.7069V77.5825V77.4582V77.2096V76.9609V76.7122L55.8509 76.4636L55.9753 76.215L56.0992 75.9663L56.2236 75.842L56.4725 75.7177H56.5969H56.7213H56.8457H56.9701H57.0945L57.2189 75.842L57.3433 75.9663L57.4677 76.0906L57.5921 76.215L57.716 76.3393L57.8404 76.4636L57.9648 76.5879L58.0892 76.7122L58.2136 76.8366V76.9609V77.0853V77.3339L59.0845 77.2096Z" fill="white"/>
<path d="M64.9322 70.7449H64.559V70.6206V70.3719V69.9989V69.626V69.9989L64.4346 70.3719V70.7449V70.8692H63.6887V70.7449V70.3719V69.9989V69.626V69.253V68.88V69.253V69.626V69.9989V70.3719V70.6206V70.7449H63.3155V70.6206V70.2476V69.8746V69.5016V69.1287V68.88H63.4399H63.5643H63.6887H63.8126H63.937H64.0614H63.937H63.8126H63.6887H63.5643H63.4399H63.3155V68.7557V68.3827V68.0097V68.3827V68.7557V68.88H63.1911H63.3155H63.4399V69.0043V69.3773V69.7503V70.1233V70.4962V70.7449H63.1911C63.1911 70.8692 63.3155 70.8692 63.3155 70.9936L62.4446 76.2152L61.2011 72.9828V72.8584L61.0766 72.7341H60.9522H60.8278H60.7034H60.5795H60.4551L59.9575 71.7395L58.9628 72.1125L58.8383 72.6098L58.0919 72.8584C58.0919 72.8584 57.5943 72.1125 57.346 72.1125C57.0972 72.1125 55.7292 72.4855 55.7292 72.4855L55.8536 72.1125L55.9775 71.7395L56.1019 71.3665L56.2263 70.9936L56.3507 70.6206L56.4751 70.2476V69.8746L56.5995 69.5016V69.1287V68.7557V68.3827V68.0097V67.6368V67.2638V67.1395H56.7239H56.8483H56.9727H57.0972H57.2216H57.346H57.4704H57.5943H57.7187H57.8431H57.9675H58.0919H58.2163H58.3407H58.4651H58.5895H58.7139H58.8383H58.9628H59.0872H59.211H59.3355H59.4599H59.7087H59.9575H60.2063H60.4551H60.7034H60.9522H61.2011H61.4499H61.6987H61.9475H62.1963H62.4446H62.6934H62.9422H63.1911H63.4399H63.1911H62.9422H62.6934H62.4446H62.1963H61.9475H61.6987H61.4499H61.2011H60.9522H60.7034H60.4551H60.2063H59.9575H59.7087H59.4599L59.7087 68.0097H59.5843H59.4599H59.3355H59.211H59.0872H58.9628H58.8383H58.7139H58.5895H58.4651H58.3407H58.2163H58.0919H57.8431H57.5943H57.346H57.0972H56.8483H56.5995H56.3507V67.8854V68.0097H56.2263H56.3507V68.1341V68.507V68.88V69.253V69.626L56.2263 69.9989V70.3719L56.1019 70.7449L55.9775 71.1179L55.8536 71.4908L55.9775 71.3665V71.6152L55.8536 71.9881L55.7292 72.3611L55.6048 72.6098C55.6048 72.6098 54.4851 73.1071 54.3612 73.2314C54.2368 73.48 54.1124 74.3503 54.1124 74.3503L52.1224 74.9719C52.1224 75.5936 52.4956 76.8369 52.4956 76.8369L51.376 77.2098C51.376 77.2098 52.2468 79.945 52.4956 80.6909C52.4956 80.8152 52.62 80.9395 52.7445 80.8152C53.4904 80.5666 56.1019 79.6963 56.1019 79.6963C56.1019 79.6963 57.2216 80.3179 58.7139 79.945C61.4499 79.0747 62.1963 77.9557 62.569 77.4585C62.6934 77.3341 64.0614 72.9828 64.0614 72.9828C64.1858 73.48 64.3102 74.1017 64.3102 74.599C64.1858 78.0801 60.2063 81.5612 56.2263 80.5666L52.4956 81.3126C52.4956 81.3126 52.2468 81.3126 52.1224 81.1882C51.998 80.9395 50.63 76.7125 50.5056 76.4638C50.3812 75.9666 50.8789 75.8422 50.8789 75.8422L50.7544 75.5936L51.998 75.2206V74.599C52.1224 72.7341 52.9927 71.1179 54.3612 69.9989L54.8583 72.1125L56.8483 64.9016L49.2621 67.1395L51.6248 67.5124C49.6353 69.0043 48.5156 71.4908 48.5156 74.3503C48.5156 79.3233 52.62 83.799 57.9675 83.799C63.3155 83.799 67.6682 79.572 67.6682 74.3503C67.6682 72.3611 67.1705 70.4962 66.0514 69.0043L64.9322 70.7449ZM52.7445 76.7125L52.4956 75.5936L54.3612 74.9719L54.4851 76.0909L52.7445 76.7125ZM59.211 74.3503L58.7139 73.48L60.5795 72.8584L60.9522 73.853L59.211 74.3503ZM59.8331 71.9881L60.0819 72.3611L59.211 72.6098V72.2368L59.8331 71.9881ZM54.6095 74.599C54.6095 74.599 54.3612 73.6044 54.4851 73.3557C54.6095 72.9828 56.9727 72.3611 57.2216 72.3611C57.5943 72.3611 57.9675 73.6044 57.9675 73.6044L54.6095 74.599ZM59.8331 77.3341V77.5828V77.8314L59.7087 78.0801L59.5843 78.3288L59.4599 78.5774L59.3355 78.826L59.211 79.0747L59.0872 79.199L58.8383 79.3233L58.5895 79.4476L58.3407 79.572L58.0919 79.6963L57.8431 79.8207H57.5943H57.346H57.0972H56.8483L56.5995 79.6963L56.3507 79.572L56.1019 79.4476L55.8536 79.3233L55.6048 79.199L55.356 79.0747L55.2316 78.9504L55.1071 78.7017L54.9827 78.4531L54.8583 78.2044L54.7339 77.9557L54.6095 77.7071V77.4585V77.2098V76.9612V76.7125V76.4638L54.7339 76.2152L54.8583 75.9666L54.9827 75.7179L55.1071 75.4693L55.2316 75.2206L55.356 75.0963L55.6048 74.9719L55.8536 74.8476L56.1019 74.7233L56.3507 74.599L56.5995 74.4747H56.8483H57.0972H57.346H57.5943H57.8431L58.0919 74.599L58.3407 74.7233L58.5895 74.8476L58.8383 74.9719L58.9628 75.0963L59.0872 75.2206L59.211 75.4693L59.3355 75.7179L59.4599 75.9666L59.5843 76.2152L59.7087 76.4638V76.7125V76.9612L59.8331 77.3341ZM62.8178 73.9774L62.9422 73.6044V73.2314V72.8584V72.4855V72.1125V71.7395V71.3665V71.1179C63.0666 71.2422 63.1911 71.3665 63.1911 71.6152L63.4399 71.8638V72.2368L63.3155 72.4855L63.1911 72.7341L63.0666 72.9828L62.9422 73.2314L62.8178 73.48V73.9774ZM63.937 72.7341L62.3202 76.9612L63.4399 71.6152C63.6887 71.9881 63.8126 72.3611 63.937 72.7341Z" fill="white"/>
<path d="M57.0959 75.4692C56.4738 75.4692 56.3494 76.0909 56.9715 75.9666C57.4691 75.9666 57.593 75.9666 58.4638 76.0909C58.5882 76.0909 57.9662 75.4692 57.0959 75.4692Z" fill="white"/>
<path d="M57.0971 69.253H57.2209V69.3774H57.3454H57.4698H57.5942V69.5017V69.3774H57.4698V69.253H57.3454L57.2209 69.1287H57.0971V69.0044V69.1287H56.9727V69.253H57.0971Z" fill="white"/>
<path d="M56.8486 70.745V70.8693H56.973H57.0975V70.745H57.2213V70.6207H57.3457H57.4702V70.4963H57.3457V70.6207H57.2213H57.0975H56.973V70.745H56.8486Z" fill="white"/>
<path d="M57.0988 69.8745H56.9744H56.85H56.7256V69.9988V70.1232H56.85V69.9988H56.9744H57.0988H57.2227H57.3471H57.2227V69.8745H57.0988Z" fill="white"/>
<path d="M58.0871 71.1179V70.9936V70.8693V70.745V70.6206V70.4963H58.2115H58.3359H58.4603H58.5847H58.7091H58.5847H58.4603H58.3359H58.2115H58.0871H57.9627H57.8383H57.7139H57.5895V70.3719V70.2476H57.4651H57.3412H57.2168H57.0924H56.968H56.8436H56.7191H56.5947H56.4703H56.3459H56.2215H56.0971H55.9727H55.8483H55.7244H55.6H55.4756V70.3719V70.4963V70.6206V70.745V70.8693V70.9936V71.1179V71.2422V71.3666C58.0871 70.9936 58.0871 71.1179 58.0871 71.1179ZM58.0871 70.745L57.9627 70.4963V70.3719V70.2476V70.1233V69.999V69.8747V69.7503V69.626V69.5017V69.3774V69.253V69.1287V69.0044H58.0871H58.2115H58.3359H58.4603H58.5847H58.7091H58.8336H58.9574H59.0819H59.2063H59.3307H59.4551H59.5795H59.7039V69.1287V69.253V69.3774V69.5017L58.0871 70.745Z" fill="white"/>
<path d="M58.0949 68.8798L57.9705 68.7555V68.6312L57.8461 68.5068H57.7217V68.6312L57.8461 68.7555V68.8798H57.9705V69.0041H58.0949V68.8798Z" fill="white"/>
<path d="M58.8352 68.7555V68.6312V68.5069V68.3826H58.9596H58.8352H58.7113H58.5869L58.7113 68.5069V68.6312V68.7555V69.0042V68.8799L58.8352 68.7555Z" fill="white"/>
<path d="M59.3359 69.1285L59.4603 69.0041V68.8798H59.5848V68.7555H59.7092L59.8336 68.6312H59.7092H59.5848V68.5068V68.6312V68.7555H59.4603V68.8798L59.3359 69.0041V69.1285Z" fill="white"/>
</svg>
