<svg width="128" height="128" viewBox="0 0 128 128" fill="none" xmlns="http://www.w3.org/2000/svg">
<path fill-rule="evenodd" clip-rule="evenodd" d="M78.3013 87C83.8896 87 86.9942 83.895 86.9942 78.306L87 49.694C87 44.105 83.8954 41 78.3186 41H49.6929C44.1046 41 41 44.105 41 49.694V78.306C41 83.895 44.1046 87 49.6929 87H78.3013ZM70.5739 57.3645V61.7575L68.3432 64L79.3531 75.0055L75.0066 79.341L64.014 68.347L53.0214 79.3295L48.6577 74.994L59.6273 64L57.3966 61.7805V57.3875L55.8098 55.8005V59.607L54.4299 60.987L48.8761 55.4325L47.5078 56.801C47.5294 54.3447 48.5214 51.9966 50.2675 50.269C53.0041 47.624 55.9708 48.82 56.9826 49.832L62.5249 55.375L61.1106 56.7895L63.9852 59.6645L66.8599 56.7895L65.4456 55.375L70.9879 49.809C71.9997 48.797 74.9664 47.601 77.703 50.246C79.4491 51.9736 80.4411 54.3217 80.4627 56.778L79.0944 55.4095L73.5406 60.964L72.1607 59.584V55.7775L70.5739 57.3645Z" fill="white"/>
</svg>
