<svg width="128" height="128" viewBox="0 0 128 128" fill="none" xmlns="http://www.w3.org/2000/svg">
<g clip-path="url(#clip0_447_2142)">
<path d="M51.1739 55.2346L53.523 53.5024H45.6807V63.8719H53.523V62.1516H47.923V59.494H52.6925V57.7618H47.923V55.2346H51.1739Z" fill="white"/>
<path d="M39.7611 57.5482H37.0441V55.2346H41.3865L43.7238 53.5024H34.8018V63.8719H39.4763C42.0984 63.8719 43.6051 62.6855 43.6051 60.6092C43.5933 58.6397 42.2407 57.5482 39.7611 57.5482ZM39.3696 62.1516H37.0323V59.2804H39.3696C40.7933 59.2804 41.4458 59.7668 41.4458 60.716C41.4577 61.6889 40.7577 62.1516 39.3696 62.1516Z" fill="white"/>
<path d="M59.8708 53.5024H55.5996V63.8719H57.842V60.9296H59.8708C62.5996 60.9296 64.2844 59.494 64.2844 57.2041C64.2844 54.9262 62.5996 53.5024 59.8708 53.5024ZM59.8233 59.2092H57.842V55.2346H59.8233C61.2589 55.2346 62.042 55.9465 62.042 57.2279C62.042 58.5092 61.2589 59.2092 59.8233 59.2092Z" fill="white"/>
<path d="M30.9569 61.6296C30.3637 61.9499 29.6993 62.116 29.023 62.116C27.006 62.116 25.5467 60.6804 25.5467 58.6872C25.5467 56.7059 27.006 55.2584 29.023 55.2584C29.7467 55.2465 30.4705 55.472 31.0637 55.8991L32.6654 54.7127L32.5586 54.6177C31.6213 53.7991 30.3637 53.3601 28.9399 53.3601C27.3857 53.3601 25.9738 53.8821 24.9772 54.8313C23.9688 55.7923 23.4111 57.133 23.4111 58.616C23.4111 60.111 23.9688 61.4754 24.9772 62.4601C25.9857 63.4449 27.3976 63.9906 28.9399 63.9906C30.5535 63.9906 31.9654 63.433 32.9145 62.4008L31.4671 61.333L30.9569 61.6296Z" fill="white"/>
<path d="M16.4468 53.4077C16.8502 53.9297 17.2061 54.5111 17.479 55.1281L9.60103 60.9416L6.30273 58.8772V56.3857L9.60103 58.4501L16.4468 53.4077Z" fill="white"/>
<path d="M2.95708 58.6871C2.95708 58.5803 2.95708 58.4617 2.96895 58.3549L0.975729 58.26C0.963864 58.4024 0.963867 58.5448 0.963867 58.6871C0.963867 61.0719 1.93675 63.2431 3.50284 64.8092L4.91471 63.3973C3.69267 62.1872 2.95708 60.5261 2.95708 58.6871Z" fill="white"/>
<path d="M9.60153 52.0433C9.70831 52.0433 9.82695 52.0433 9.93373 52.0551L10.0286 50.0619C9.88627 50.05 9.7439 50.05 9.60153 50.05C7.21678 50.05 5.04559 51.0229 3.47949 52.589L4.89136 54.0009C6.10153 52.7789 7.77441 52.0433 9.60153 52.0433Z" fill="white"/>
<path d="M9.60095 65.3434C9.49417 65.3434 9.37552 65.3434 9.26874 65.3315L9.17383 67.3247C9.3162 67.3366 9.45857 67.3366 9.60095 67.3366C11.9857 67.3366 14.1569 66.3637 15.723 64.7976L14.3111 63.3857C13.101 64.5959 11.4399 65.3434 9.60095 65.3434Z" fill="white"/>
<path d="M13.3507 53.1942L15.0355 51.9484C13.5524 50.7501 11.666 50.0264 9.60156 50.0264V52.0196C10.9897 52.0433 12.2829 52.4704 13.3507 53.1942Z" fill="white"/>
<path d="M18.2508 58.6875C18.2508 58.1536 18.2033 57.6435 18.1084 57.1333L16.2457 58.5096C16.2457 58.5689 16.2457 58.6282 16.2457 58.6875C16.2457 60.6452 15.4033 62.4011 14.0508 63.6232L15.3915 65.1062C17.1593 63.5282 18.2508 61.2384 18.2508 58.6875Z" fill="white"/>
<path d="M9.60126 65.3434C7.64363 65.3434 5.8877 64.501 4.66567 63.1484L3.18262 64.4891C4.76058 66.2332 7.05041 67.3366 9.60126 67.3366V65.3434Z" fill="white"/>
<path d="M5.14028 53.7636L3.79961 52.2805C2.05554 53.8585 0.952148 56.1483 0.952148 58.6992H2.94537C2.95723 56.7415 3.79961 54.9737 5.14028 53.7636Z" fill="white"/>
<path d="M32.7965 69.8754L29.4745 75.3804H28.5372L25.1321 69.9465V77.6584H23.2812V67.3008H25.6185L29.0473 72.9364L32.4524 67.3008H34.6474V77.6584H32.7965V69.8754Z" fill="white"/>
<path d="M43.8059 73.1737H39.0364V75.9618H44.5059V77.6584H37.1855V67.3008H44.3517V68.9974H39.0364V71.4652H43.8059V73.1737Z" fill="white"/>
<path d="M53.6059 68.9974H48.4212V77.6584H46.5703V67.3008H53.594V68.9974H53.6059Z" fill="white"/>
<path d="M63.1218 77.6584H61.1523L60.1557 75.2025H55.41L54.4371 77.6584H52.5625L56.7625 67.3008H58.8625L63.1218 77.6584ZM59.4794 73.5059L57.7828 69.2584L56.0862 73.5059H59.4794Z" fill="white"/>
<path d="M73.9539 69.8754L70.62 75.3804H69.6827L66.2776 69.9465V77.6584H64.4268V67.3008H66.764L70.1929 72.9364L73.6098 67.3008H75.8047V77.6584H73.9539V69.8754Z" fill="white"/>
<path d="M87.6687 77.6584H85.6992L84.7026 75.2025H79.9568L78.984 77.6584H77.1094L81.3094 67.3008H83.4094L87.6687 77.6584ZM84.0263 73.5059L82.3297 69.2584L80.6331 73.5059H84.0263Z" fill="white"/>
<path d="M90.8372 74.4313V77.6584H88.9863V67.3008H92.4389C94.0762 67.3008 95.2626 67.5974 95.9982 68.1787C96.7338 68.7601 97.1016 69.6381 97.1016 70.8008C97.1016 72.011 96.7101 72.9245 95.9151 73.5177C95.1202 74.1228 93.9694 74.4194 92.4389 74.4194L90.8372 74.4313ZM90.8372 68.9974V72.7228H92.5694C93.4355 72.7228 94.088 72.5686 94.527 72.272C94.966 71.9754 95.1795 71.4652 95.1795 70.7533C95.1795 70.1126 94.9779 69.6618 94.5745 69.3889C94.1711 69.1279 93.5185 68.9855 92.605 68.9855L90.8372 68.9974Z" fill="white"/>
<path d="M100.838 77.6584H98.9873V67.3008H100.838V71.655H102.392L105.726 67.3008H107.981L104.03 72.2245L108.621 77.6584H106.248L102.487 73.1737H100.85L100.838 77.6584Z" fill="white"/>
<path d="M116.547 73.1737H111.778V75.9618H117.247V77.6584H109.927V67.3008H117.093V68.9974H111.778V71.4652H116.547V73.1737Z" fill="white"/>
<path d="M126.999 68.9974H123.511V77.6584H121.66V68.9974H118.231V67.3008H127.011L126.999 68.9974Z" fill="white"/>
</g>
<defs>
<clipPath id="clip0_447_2142">
<rect width="126" height="31.7203" fill="white" transform="translate(1 48)"/>
</clipPath>
</defs>
</svg>
