<svg width="128" height="128" viewBox="0 0 128 128" fill="none" xmlns="http://www.w3.org/2000/svg">
<g clip-path="url(#clip0_447_2143)">
<path d="M25.9845 82.8377C25.6402 82.6401 25.2716 82.4881 24.8881 82.3855C24.5144 82.2896 24.1483 82.1664 23.7927 82.0169C23.4793 81.8936 23.1922 81.7121 22.9464 81.4818C22.718 81.2675 22.6032 80.9468 22.6032 80.5416C22.6041 80.3794 22.6311 80.2184 22.6832 80.0648C22.7471 79.8835 22.8483 79.7176 22.9803 79.5778C23.1347 79.412 23.3265 79.2856 23.5398 79.2092C23.8171 79.1057 24.1118 79.0571 24.4077 79.0662C24.748 79.0639 25.0842 79.1411 25.3893 79.2919C25.6625 79.4322 25.8906 79.6466 26.0475 79.9106L27.064 78.9468C26.7095 78.5068 26.3117 78.2096 25.8416 78.0667C25.3715 77.9228 24.8824 77.8506 24.3907 77.8523C23.8322 77.8523 23.3517 77.937 22.9643 78.1147C22.5981 78.2668 22.2676 78.4935 21.9939 78.7804C21.5322 79.2566 21.2672 79.8897 21.252 80.5528C21.252 81.1838 21.3658 81.6708 21.5943 82.0404C21.8078 82.3927 22.0968 82.6933 22.4406 82.9205C22.7794 83.1424 23.1483 83.3147 23.536 83.432C23.9356 83.5505 24.3005 83.6812 24.6324 83.8128C24.9387 83.929 25.2244 84.0934 25.4786 84.2999C25.7075 84.4879 25.8215 84.7735 25.8209 85.1565C25.8274 85.3975 25.7683 85.6357 25.6498 85.8457C25.5411 86.0404 25.3936 86.2107 25.2163 86.346C25.0352 86.4789 24.8348 86.5832 24.622 86.6553C24.4158 86.724 24.2 86.7599 23.9826 86.7616C23.6061 86.7602 23.2346 86.6754 22.8947 86.5133C22.5359 86.3406 22.2345 86.068 22.0268 85.7282L21.001 86.6563C21.3149 87.1105 21.7558 87.4621 22.2685 87.6671C22.8059 87.8862 23.3807 87.9992 23.961 87.9999C24.3877 88.0017 24.8118 87.9334 25.2163 87.7978C25.5904 87.6726 25.9359 87.4745 26.2328 87.2148C26.5239 86.9524 26.7571 86.6322 26.9173 86.2745C27.0918 85.8814 27.1778 85.4548 27.1693 85.0249C27.1693 84.4428 27.0546 83.9905 26.8261 83.6577C26.6239 83.3141 26.3333 83.031 25.9845 82.8377Z" fill="white"/>
<path d="M35.2465 83.4104H39.6292V82.1881H35.2465V79.3174H39.9611V78.095H33.9902V87.7264H40.1886V86.504H35.2465V83.4104Z" fill="white"/>
<path d="M49.835 78.0913L45.7598 87.7265H47.22L48.134 85.3475H52.5402L53.4645 87.7265H54.9257L50.9652 78.0913H49.835ZM48.5788 84.2032L50.3258 79.7782H50.3484L52.0719 84.2032H48.5788Z" fill="white"/>
<path d="M65.665 83.5637H67.7196V86.252C67.4038 86.431 67.0602 86.5556 66.7031 86.6206C66.2902 86.7067 65.8696 86.7505 65.4478 86.7513C64.9563 86.7583 64.4693 86.6569 64.0214 86.4541C63.5906 86.2628 63.2023 85.9876 62.879 85.6446C62.5546 85.2908 62.2994 84.8794 62.1267 84.4316C61.9406 83.9459 61.8478 83.4294 61.8531 82.9093C61.848 82.4028 61.933 81.8994 62.1042 81.4227C62.2621 80.9783 62.503 80.5679 62.8141 80.2134C63.1211 79.8698 63.4935 79.5907 63.9095 79.3926C64.3596 79.1825 64.8515 79.0771 65.3482 79.0841C65.8067 79.0805 66.2624 79.1569 66.6947 79.3098C67.1546 79.4849 67.5714 79.7569 67.917 80.1072L68.8075 79.1077C68.4267 78.7072 67.9643 78.3932 67.4516 78.1871C66.9147 77.9614 66.2179 77.8533 65.3623 77.8533C64.6906 77.846 64.0249 77.9799 63.4083 78.2463C62.8342 78.4958 62.3174 78.8603 61.8898 79.3173C61.459 79.7838 61.1219 80.3287 60.8968 80.9224C60.6559 81.5611 60.536 82.239 60.5433 82.9215C60.5403 83.5817 60.6506 84.2375 60.8696 84.8604C61.0828 85.4584 61.4126 86.0081 61.8399 86.4777C62.2737 86.9515 62.8028 87.3283 63.3924 87.5834C64.0559 87.8648 64.7715 88.0026 65.492 87.9878C65.7897 87.9846 66.0869 87.9651 66.3825 87.9295C66.6989 87.8917 67.0128 87.8358 67.3228 87.7621C67.6312 87.6793 67.9283 87.5957 68.2132 87.4894C68.4813 87.39 68.7379 87.262 68.9786 87.1077V82.362H65.6791V83.5637H65.665Z" fill="white"/>
<path d="M79.126 78.0913L75.0508 87.7265H76.512L77.425 85.3475H81.8312L82.7565 87.7265H84.2167L80.2562 78.0913H79.126ZM77.8707 84.2032L79.6168 79.7782H79.6394L81.3677 84.206L77.8707 84.2032Z" fill="white"/>
<path d="M88.1445 79.3174H91.1234V87.7264H92.3693V79.3174H95.3481V78.095H88.1455L88.1445 79.3174Z" fill="white"/>
<path d="M102.901 83.4104H107.285V82.1881H102.901V79.3174H107.615V78.095H101.646V87.7264H107.851V86.504H102.901V83.4104Z" fill="white"/>
<path fill-rule="evenodd" clip-rule="evenodd" d="M63.3029 72.4485C62.9146 70.9262 62.5375 69.4274 62.1745 67.9643C62.5742 67.7621 62.9051 67.6079 63.3386 67.3813C65.1421 66.5849 66.8892 65.6568 68.5102 64.5031C70.5413 63.0635 72.4369 61.4462 74.0918 59.543C75.3932 58.0564 76.466 56.4024 77.0829 54.4654C77.4919 53.1791 77.7007 51.859 77.5126 50.5002C77.3655 49.3939 76.9669 48.336 76.3476 47.4076C75.6303 46.3021 74.6395 45.4007 73.4712 44.7908C71.9987 44.0169 70.435 43.732 68.8139 43.779C67.3807 43.8476 65.9686 44.1533 64.6353 44.6836C62.1501 45.638 59.8671 46.9939 57.6724 48.5256C57.0275 48.9704 56.4439 49.498 55.9366 50.095C55.6517 50.4222 55.4518 50.8146 55.3546 51.2374C55.207 51.9756 55.6066 52.5463 56.3363 52.582C56.8384 52.6055 57.2954 52.4034 57.7411 52.189C59.1223 51.5111 60.3664 50.5905 61.6442 49.763C62.7067 49.0729 63.7683 48.4062 64.9352 47.9191C66.0768 47.4462 67.2634 47.1848 68.4971 47.3973C69.8436 47.6361 70.9305 48.2906 71.5887 49.5872C72.0448 50.4908 72.0909 51.4546 71.8389 52.4297C71.5652 53.5477 70.9494 54.4513 70.2075 55.2722C69.2074 56.4022 68.0409 57.3731 66.7481 58.1514C65.4016 58.9723 64.0655 59.8166 62.6842 60.5783C61.0631 61.4584 59.3508 62.0884 57.5934 62.6234C56.1209 63.0635 54.6259 63.2656 53.096 63.1227C51.8172 63.0042 50.6071 62.6121 49.5455 61.8505C48.5887 61.158 47.8579 60.1982 47.4449 59.0917C46.7867 57.3305 46.8177 55.5346 47.2399 53.7264C47.7194 51.6803 48.7124 49.9201 49.9338 48.2783C50.8688 47.0428 51.9326 45.9102 53.1073 44.8999C54.7278 43.4596 56.4822 42.1775 58.3466 41.071C58.9747 40.7015 59.6254 40.3441 60.2187 40C60.4237 40.4523 60.6306 40.8801 60.8346 41.3164C60.2761 41.6258 59.7288 41.9229 59.1919 42.2323C56.8583 43.5728 54.7225 45.2313 52.8459 47.1603C51.807 48.2131 50.9438 49.4258 50.2892 50.7522C49.5934 52.1561 49.2286 53.6549 49.3875 55.2487C49.5699 56.9854 50.3466 58.3291 51.8877 59.1265C52.8008 59.6023 53.7824 59.7452 54.8026 59.7217C56.1952 59.6859 57.5079 59.2816 58.8092 58.7936C60.7387 58.0677 62.5413 57.0682 64.2996 55.9624C65.3273 55.3202 66.3541 54.6535 67.222 53.7856C67.679 53.3221 68.136 52.8575 68.3748 52.204C68.7933 51.0644 68.2037 50.0743 67.0246 49.9558C66.3852 49.8956 65.8022 50.11 65.2437 50.3846C63.7477 51.1095 62.4012 52.0969 61.0123 52.9892C59.947 53.6794 58.8619 54.3451 57.6978 54.8256C56.8873 55.1584 56.0429 55.3606 55.1637 55.2534C53.6593 55.0748 52.7096 53.826 52.8694 52.2558C52.9954 51.0193 53.5774 50.0085 54.3532 49.1039C55.2171 48.1255 56.2123 47.2715 57.3104 46.5661C58.9766 45.4593 60.6541 44.4034 62.4698 43.5571C64.5582 42.582 66.7011 41.8082 69.0105 41.5947C70.6671 41.4219 72.3413 41.5493 73.9526 41.9709C75.3842 42.35 76.7264 43.009 77.9019 43.9097C79.0827 44.8214 80.0558 45.9741 80.7566 47.291C81.3983 48.4954 81.7826 49.8201 81.885 51.181C81.9973 52.6165 81.8427 54.0604 81.4289 55.4396C81.0506 56.7907 80.4977 58.0866 79.7843 59.2948C78.7896 60.961 77.5891 62.4954 76.2112 63.8618C74.8064 65.2534 73.3903 66.6206 71.7919 67.7631C69.7147 69.2619 67.5455 70.5839 65.2098 71.5929C64.5817 71.89 63.9649 72.1636 63.3029 72.4485Z" fill="white"/>
</g>
<defs>
<clipPath id="clip0_447_2143">
<rect width="86.8585" height="48" fill="white" transform="translate(21 40)"/>
</clipPath>
</defs>
</svg>
