<svg width="128" height="128" viewBox="0 0 128 128" fill="none" xmlns="http://www.w3.org/2000/svg">
<path d="M22.33 58.9676L21 62.6261H39.4723L40.8063 58.9676H22.33ZM24.327 53.4838L22.997 57.1423H41.4693L42.8033 53.4838H24.327ZM26.324 48L24.994 51.6545H43.4703L44.7963 48H26.324Z" fill="white"/>
<path d="M88.1076 72.1998H91.4506C92.7167 72.1998 93.4835 71.8883 94.0227 71.1893C94.4829 70.5781 94.7133 69.8245 94.6738 69.0605C94.7078 68.5721 94.6206 68.0827 94.4199 67.6361C94.2193 67.1894 93.9113 66.7993 93.5235 66.5004C93.0602 66.1529 92.4451 65.9572 91.4107 65.9572H88.1076V72.1998ZM83.7142 75.9582V53.5558H98.1526L96.8824 57.3141H88.1076V62.2747H91.7022C94.5819 62.2747 96.0956 62.9737 97.1141 63.8723C97.9129 64.5713 99.3028 66.1209 99.3028 69.1843C99.3028 72.2478 97.8849 73.8733 96.6907 74.728C95.2968 75.6866 93.839 75.9582 90.9034 75.9582H83.7142ZM70.9334 75.9582V57.3141H64.503V53.5558H82.3203L81.0502 57.3141H75.3667V75.9582H70.9334ZM53.136 62.5064H55.6323C56.1464 62.5424 56.6631 62.5034 57.166 62.3905C58.2044 62.083 58.8555 61.1524 58.8555 59.8743C58.8555 58.3606 58.1645 57.7016 57.166 57.394C56.6133 57.261 56.0442 57.2085 55.4765 57.2383H53.136V62.5103V62.5064ZM53.176 66.3845V72.2757H56.2474C57.166 72.2757 58.0127 72.1998 58.6438 71.6167C58.9469 71.3221 59.1828 70.9653 59.3351 70.571C59.4875 70.1767 59.5527 69.754 59.5265 69.3321C59.5479 68.6402 59.3463 67.9596 58.9513 67.391C58.2963 66.5922 57.4895 66.3845 56.1076 66.3845H53.192H53.176ZM60.2773 64.0201V64.096C61.0253 64.3875 61.7243 64.7915 62.3502 65.2942C63.6563 66.3805 64.2314 67.8144 64.2314 69.6876C64.2314 72.751 62.6338 74.9597 59.9698 75.6786C58.9159 75.9362 57.8302 76.0398 56.7466 75.9861H48.7227V53.5558H55.824C56.9456 53.5143 58.0679 53.6177 59.163 53.8633C61.7391 54.5623 63.4286 56.3436 63.4286 59.1753C63.4494 59.847 63.3341 60.5159 63.0898 61.1419C62.8454 61.7678 62.477 62.3379 62.0067 62.8179C61.515 63.3275 60.9272 63.7347 60.2773 64.0161V64.0201Z" fill="white"/>
</svg>
