<svg width="168" height="168" viewBox="0 0 168 168" fill="none" xmlns="http://www.w3.org/2000/svg">
<g clip-path="url(#clip0_801_411)">
<path d="M125.416 92.4322L136.001 86.4421V54.0168L108.518 38.2598L97.8672 44.3151L125.416 60.0721V92.4322Z" fill="#16CFFE"/>
<path d="M83.5326 131.954L69.4626 123.88L113.119 99.3337L107.859 90.283L58.8772 117.825L46.911 110.989L115.289 71.987L110.029 62.9363L41.5854 101.938V88.0043L78.47 67.2339L73.2759 58.1833L41.5854 75.9587V60.0715L83.5326 36.1107L94.0522 30.0553L83.5326 24L31 54.0162V114.049L58.8114 129.936L72.9472 138.01L83.5326 144L135.999 114.049V101.938L125.414 107.993L83.5326 131.954Z" fill="#1F72FA"/>
</g>
<defs>
<clipPath id="clip0_801_411">
<rect width="105" height="120" fill="white" transform="translate(31 24)"/>
</clipPath>
</defs>
</svg>
