<svg width="168" height="168" viewBox="0 0 168 168" fill="none" xmlns="http://www.w3.org/2000/svg">
<path fill-rule="evenodd" clip-rule="evenodd" d="M127.217 54.4004C129.646 60.5624 130.859 67.2722 130.859 74.5299C130.859 78.9122 130.454 83.1571 129.512 87.2647C128.567 91.3723 127.219 95.0691 125.6 98.63C123.981 102.191 121.824 105.34 119.396 108.353C116.968 111.366 114.27 113.968 111.168 116.158L135.85 143.545H121.015C118.857 143.545 116.834 143.134 115.081 142.586C113.328 142.038 111.844 140.942 110.361 139.3L96.0639 123.279C93.7715 123.963 91.4787 124.374 89.0509 124.648C86.6231 124.923 84.0613 125.196 81.4982 125.196C74.0809 125.196 67.3368 123.827 61.268 121.362C55.1991 118.897 49.939 115.337 45.623 110.818C41.3069 106.3 37.935 100.959 35.5072 94.7971C33.0793 88.6351 32 81.788 32 74.5299C32 67.2722 33.078 60.5638 35.5059 54.4004C37.9337 48.2372 41.3056 42.8978 45.6216 38.3783C49.9377 33.8589 55.1978 30.2992 61.2667 27.8342C67.3355 25.3692 74.0796 24 81.4969 24C88.9146 24 95.523 25.2332 101.592 27.8342C107.661 30.4366 112.921 33.8589 117.237 38.3783C121.553 42.8978 124.79 48.2385 127.217 54.4004ZM110.09 89.1832C111.439 84.7995 112.247 80.0079 112.247 74.5299C112.247 69.0533 111.439 64.3967 110.09 60.0144C108.741 55.6323 106.718 52.0727 104.021 49.0597C101.324 46.0481 98.0874 43.719 94.3111 42.0766C90.5348 40.4341 86.2188 39.7488 81.4982 39.7488C76.7777 39.7488 72.4617 40.4328 68.6854 42.0766C64.9091 43.719 61.5372 46.0467 58.8402 49.0597C56.1431 52.0727 54.1197 55.6323 52.636 60.0144C51.1522 64.3967 50.4786 69.0533 50.4786 74.5299C50.4786 80.0079 51.1522 84.8009 52.636 89.1832C54.1197 93.5651 56.1431 97.1246 58.8402 100.138C61.5372 103.149 64.9091 105.477 68.6854 107.121C72.4617 108.763 76.7777 109.449 81.4982 109.449C86.2188 109.449 90.5348 108.763 94.3111 107.121C98.0874 105.478 101.324 103.151 104.021 100.138C106.718 97.1246 108.741 93.5651 110.09 89.1832ZM59.4184 66.9464C59.7774 66.8885 60.1233 66.7565 60.4419 66.5717C61.3977 66.0142 62.1143 64.9605 62.1871 63.857C62.6071 57.548 67.9417 51.5946 74.0757 50.5871C75.5061 50.3521 76.7456 48.9697 76.8432 47.4988C76.9419 46.0279 75.8612 45.0257 74.4308 45.2607C65.4408 46.7369 57.6238 55.4619 57.0061 64.7084C56.9086 66.1795 57.988 67.1817 59.4184 66.9464Z" fill="white"/>
</svg>
