<svg width="168" height="168" viewBox="0 0 168 168" fill="none" xmlns="http://www.w3.org/2000/svg">
<path d="M107.438 95.3744C107.438 107.222 98.391 114 83.3191 114L83.2512 113.931C69.0788 113.931 61.6617 108.05 59.625 97.7026L71.8455 95.3054C73.0506 100.272 76.6488 102.842 83.7265 102.842C91.3133 102.842 94.8945 100.186 94.8945 95.3054C94.8945 90.4248 91.6358 87.8552 84.3035 87.8552C81.8116 87.9033 79.3291 88.1804 76.8864 88.683L73.9501 80.4049L90.244 67.9016H62.4594V56.8125H104.671V68.8847L90.8211 79.2322C100.648 79.6461 107.438 84.6129 107.438 95.3744Z" fill="white"/>
<path fill-rule="evenodd" clip-rule="evenodd" d="M144 84C144 117.137 117.137 144 84 144C50.8629 144 24 117.137 24 84C24 50.8629 50.8629 24 84 24C117.137 24 144 50.8629 144 84ZM132.75 84C132.75 110.924 110.924 132.75 84 132.75C57.0761 132.75 35.25 110.924 35.25 84C35.25 57.0761 57.0761 35.25 84 35.25C110.924 35.25 132.75 57.0761 132.75 84Z" fill="white"/>
</svg>
