<svg width="24" height="24" viewBox="0 0 24 24" fill="none" xmlns="http://www.w3.org/2000/svg">
<path d="M19.6416 7.53115C20.4677 7.43934 21.2672 7.21639 22 6.90164C21.4537 7.71475 20.7608 8.42295 19.948 8.98689C19.9614 9.15738 19.9614 9.32787 19.9614 9.51148C19.9614 14.8492 15.8308 21 8.28914 21C5.97069 21 3.81213 20.3311 2 19.1902C2.31979 19.2295 2.6529 19.2426 2.98601 19.2426C4.90473 19.2426 6.67688 18.6 8.07595 17.5115C6.29047 17.4721 4.77149 16.3049 4.25183 14.7049C4.505 14.7574 4.75816 14.7705 5.02465 14.7705C5.39773 14.7705 5.75749 14.718 6.10393 14.6262C4.22518 14.259 2.81279 12.6328 2.81279 10.6787C2.81279 10.6656 2.81279 10.6393 2.81279 10.6262C3.37242 10.9279 3.99867 11.1115 4.67821 11.1246C3.57229 10.4033 2.85276 9.17049 2.85276 7.76721C2.85276 7.03279 3.05263 6.3377 3.41239 5.73443C5.43771 8.17377 8.46236 9.78689 11.8601 9.95738C11.7935 9.65574 11.7535 9.3541 11.7535 9.03934C11.7535 6.80984 13.5923 5 15.8574 5C17.03 5 18.0959 5.48525 18.8554 6.27213C19.7881 6.08852 20.6676 5.76066 21.4537 5.28852C21.1472 6.23279 20.4943 7.03279 19.6416 7.53115Z" fill="white"/>
</svg>
