<svg width="24" height="24" viewBox="0 0 24 24" fill="none" xmlns="http://www.w3.org/2000/svg">
<path fill-rule="evenodd" clip-rule="evenodd" d="M20.5968 4.47789C21.544 4.7413 22.2883 5.51458 22.5418 6.49859C23 8.28034 23 12 23 12C23 12 23 15.7197 22.54 17.5014C22.2865 18.4854 21.5421 19.2587 20.595 19.5221C18.88 20 12 20 12 20C12 20 5.12002 20 3.405 19.5221C2.45785 19.2587 1.71353 18.4854 1.45999 17.5014C1 15.7197 1 12 1 12C1 12 1 8.28034 1.45999 6.49859C1.71353 5.51458 2.45785 4.7413 3.405 4.47789C5.12002 4 12 4 12 4C12 4 18.88 4 20.5968 4.47789ZM15.5142 11.9979L9.79688 15.4259V8.56984L15.5142 11.9979Z" fill="white"/>
</svg>
