<svg width="24" height="24" viewBox="0 0 24 24" fill="none" xmlns="http://www.w3.org/2000/svg">
<path fill-rule="evenodd" clip-rule="evenodd" d="M7.87845 2.06033C8.94507 2.01151 9.28565 2 12.0016 2L12 2.00158C14.7159 2.00158 15.0581 2.0135 16.1223 2.06191C17.1866 2.11035 17.9146 2.27942 18.5497 2.52632C19.2172 2.77777 19.8219 3.17167 20.3217 3.68056C20.8303 4.18006 21.2238 4.78447 21.4748 5.45162C21.7221 6.08668 21.8908 6.81068 21.9397 7.8772C21.9885 8.94373 22 9.28428 22 12C22 14.7157 21.9881 15.0587 21.9397 16.1228C21.8912 17.187 21.7221 17.9149 21.4748 18.55C21.2181 19.2145 20.8252 19.8179 20.3215 20.3216C19.8177 20.8253 19.2142 21.2181 18.5497 21.4749C17.9146 21.7222 17.1905 21.8908 16.1239 21.9397C15.0573 21.9885 14.7167 22 12.0008 22C9.28485 22 8.94188 21.9881 7.87766 21.9397C6.81343 21.8913 6.08542 21.7222 5.4503 21.4749C4.78273 21.2237 4.17801 20.8299 3.67831 20.321C3.16975 19.8214 2.77612 19.2171 2.52476 18.55C2.27786 17.9149 2.10916 17.1901 2.06034 16.1236C2.01151 15.0571 2 14.7165 2 12.0008C2 9.28506 2.01191 8.94292 2.06034 7.87879C2.10876 6.81465 2.27786 6.08668 2.52476 5.45162C2.77602 4.78424 3.16966 4.1796 3.67831 3.67976C4.17818 3.17116 4.78287 2.77754 5.4503 2.52632C6.08542 2.27942 6.81184 2.10916 7.87845 2.06033ZM17.3404 7.86315C18.0031 7.86315 18.5404 7.32594 18.5404 6.66326C18.5404 6.00058 18.0031 5.46338 17.3404 5.46338C16.6777 5.46338 16.1404 6.00058 16.1404 6.66326C16.1404 7.32594 16.6777 7.86315 17.3404 7.86315ZM9.14932 7.73183C9.99376 7.16762 10.9866 6.86649 12.0022 6.86649C12.6765 6.86645 13.3443 6.99921 13.9673 7.25722C14.5903 7.51526 15.1564 7.89345 15.6332 8.37026C16.1101 8.84706 16.4883 9.4131 16.7463 10.0361C17.0044 10.6591 17.1372 11.3268 17.1371 12.001C17.1371 13.0166 16.836 14.0093 16.2717 14.8537C15.7075 15.698 14.9055 16.3561 13.9672 16.7448C13.0289 17.1334 11.9965 17.2351 11.0004 17.037C10.0043 16.8388 9.08933 16.3498 8.37119 15.6317C7.65305 14.9136 7.164 13.9988 6.96586 13.0028C6.76772 12.0067 6.86941 10.9744 7.25807 10.0361C7.64672 9.09792 8.30488 8.29601 9.14932 7.73183ZM10.1497 14.7733C10.698 15.1396 11.3427 15.3352 12.0022 15.3352C12.8865 15.3352 13.7346 14.9839 14.3599 14.3586C14.9852 13.7334 15.3365 12.8853 15.3365 12.001C15.3365 11.3416 15.141 10.697 14.7746 10.1487C14.4082 9.60042 13.8874 9.17306 13.2782 8.92071C12.6689 8.66836 11.9985 8.60234 11.3517 8.73098C10.7048 8.85962 10.1107 9.17719 9.64439 9.64347C9.17807 10.1098 8.86049 10.7038 8.73183 11.3506C8.60318 11.9973 8.66921 12.6677 8.92158 13.277C9.17395 13.8862 9.60132 14.4069 10.1497 14.7733Z" fill="white"/>
</svg>
